%TF.GenerationSoftware,KiCad,Pcbnew,7.0.7*%
%TF.CreationDate,2023-09-10T22:48:18+01:00*%
%TF.ProjectId,kikad-tutorial,6b696b61-642d-4747-9574-6f7269616c2e,0*%
%TF.SameCoordinates,Original*%
%TF.FileFunction,Legend,Bot*%
%TF.FilePolarity,Positive*%
%FSLAX46Y46*%
G04 Gerber Fmt 4.6, Leading zero omitted, Abs format (unit mm)*
G04 Created by KiCad (PCBNEW 7.0.7) date 2023-09-10 22:48:18*
%MOMM*%
%LPD*%
G01*
G04 APERTURE LIST*
%ADD10C,0.150000*%
%ADD11C,0.120000*%
G04 APERTURE END LIST*
D10*
X60785714Y-66551009D02*
X60642857Y-66598628D01*
X60642857Y-66598628D02*
X60595238Y-66646247D01*
X60595238Y-66646247D02*
X60547619Y-66741485D01*
X60547619Y-66741485D02*
X60547619Y-66884342D01*
X60547619Y-66884342D02*
X60595238Y-66979580D01*
X60595238Y-66979580D02*
X60642857Y-67027200D01*
X60642857Y-67027200D02*
X60738095Y-67074819D01*
X60738095Y-67074819D02*
X61119047Y-67074819D01*
X61119047Y-67074819D02*
X61119047Y-66074819D01*
X61119047Y-66074819D02*
X60785714Y-66074819D01*
X60785714Y-66074819D02*
X60690476Y-66122438D01*
X60690476Y-66122438D02*
X60642857Y-66170057D01*
X60642857Y-66170057D02*
X60595238Y-66265295D01*
X60595238Y-66265295D02*
X60595238Y-66360533D01*
X60595238Y-66360533D02*
X60642857Y-66455771D01*
X60642857Y-66455771D02*
X60690476Y-66503390D01*
X60690476Y-66503390D02*
X60785714Y-66551009D01*
X60785714Y-66551009D02*
X61119047Y-66551009D01*
X60261904Y-66074819D02*
X59690476Y-66074819D01*
X59976190Y-67074819D02*
X59976190Y-66074819D01*
X58833333Y-67074819D02*
X59404761Y-67074819D01*
X59119047Y-67074819D02*
X59119047Y-66074819D01*
X59119047Y-66074819D02*
X59214285Y-66217676D01*
X59214285Y-66217676D02*
X59309523Y-66312914D01*
X59309523Y-66312914D02*
X59404761Y-66360533D01*
D11*
%TO.C,BT1*%
X61660000Y-64910000D02*
X63860000Y-67110000D01*
X45690000Y-57100000D02*
X45690000Y-55390000D01*
X74310000Y-60900000D02*
X74310000Y-62610000D01*
X58340000Y-64910000D02*
X61660000Y-64910000D01*
X67847300Y-50890000D02*
X52152700Y-50890000D01*
X45690000Y-62610000D02*
X49308000Y-62610000D01*
X49308000Y-55390000D02*
X45690000Y-55390000D01*
X70692000Y-62610000D02*
X74310000Y-62610000D01*
X52152700Y-67110000D02*
X56140000Y-67110000D01*
X58340000Y-64910000D02*
X56140000Y-67110000D01*
X74310000Y-55390000D02*
X70692000Y-55390000D01*
X74310000Y-57100000D02*
X74310000Y-55390000D01*
X63860000Y-67110000D02*
X67847300Y-67110000D01*
X45690000Y-60900000D02*
X45690000Y-62610000D01*
X49308000Y-62610000D02*
G75*
G03*
X52154629Y-67111789I10692020J3610012D01*
G01*
X52154629Y-50888211D02*
G75*
G03*
X49308000Y-55390000I7845371J-8111789D01*
G01*
X70691998Y-55390001D02*
G75*
G03*
X67845371Y-50888211I-10692018J-3610009D01*
G01*
X67845371Y-67111789D02*
G75*
G03*
X70692000Y-62610000I-7845366J8111785D01*
G01*
%TD*%
M02*
