%TF.GenerationSoftware,KiCad,Pcbnew,7.0.7*%
%TF.CreationDate,2023-09-26T19:09:09+01:00*%
%TF.ProjectId,dpad,64706164-2e6b-4696-9361-645f70636258,1*%
%TF.SameCoordinates,Original*%
%TF.FileFunction,Copper,L2,Bot*%
%TF.FilePolarity,Positive*%
%FSLAX46Y46*%
G04 Gerber Fmt 4.6, Leading zero omitted, Abs format (unit mm)*
G04 Created by KiCad (PCBNEW 7.0.7) date 2023-09-26 19:09:09*
%MOMM*%
%LPD*%
G01*
G04 APERTURE LIST*
%TA.AperFunction,ComponentPad*%
%ADD10C,4.400000*%
%TD*%
%TA.AperFunction,ComponentPad*%
%ADD11C,2.000000*%
%TD*%
%TA.AperFunction,ComponentPad*%
%ADD12R,1.700000X1.700000*%
%TD*%
%TA.AperFunction,ComponentPad*%
%ADD13O,1.700000X1.700000*%
%TD*%
G04 APERTURE END LIST*
D10*
%TO.P,H4,1,1*%
%TO.N,GND*%
X95400000Y-71200000D03*
%TD*%
%TO.P,H3,1,1*%
%TO.N,GND*%
X95400000Y-38700000D03*
%TD*%
%TO.P,H2,1,1*%
%TO.N,GND*%
X70400000Y-71200000D03*
%TD*%
%TO.P,H1,1,1*%
%TO.N,GND*%
X70400000Y-38700000D03*
%TD*%
D11*
%TO.P,SW2,1,1*%
%TO.N,D2*%
X86102000Y-59932000D03*
X79602000Y-59932000D03*
%TO.P,SW2,2,2*%
%TO.N,GND*%
X86102000Y-55432000D03*
X79602000Y-55432000D03*
%TD*%
%TO.P,SW4,1,1*%
%TO.N,D4*%
X89458894Y-46898913D03*
X94055088Y-51495107D03*
%TO.P,SW4,2,2*%
%TO.N,GND*%
X86276913Y-50080894D03*
X90873108Y-54677088D03*
%TD*%
%TO.P,SW3,1,1*%
%TO.N,D3*%
X86200000Y-44910000D03*
X79700000Y-44910000D03*
%TO.P,SW3,2,2*%
%TO.N,GND*%
X86200000Y-40410000D03*
X79700000Y-40410000D03*
%TD*%
%TO.P,SW1,1,1*%
%TO.N,D1*%
X71798913Y-51495107D03*
X76395107Y-46898913D03*
%TO.P,SW1,2,2*%
%TO.N,GND*%
X74980894Y-54677088D03*
X79577088Y-50080893D03*
%TD*%
D12*
%TO.P,J1,1,Pin_1*%
%TO.N,D1*%
X77974000Y-66536000D03*
D13*
%TO.P,J1,2,Pin_2*%
%TO.N,D2*%
X80514000Y-66536000D03*
%TO.P,J1,3,Pin_3*%
%TO.N,D3*%
X83054000Y-66536000D03*
%TO.P,J1,4,Pin_4*%
%TO.N,D4*%
X85594000Y-66536000D03*
%TO.P,J1,5,Pin_5*%
%TO.N,GND*%
X88134000Y-66536000D03*
%TD*%
%TA.AperFunction,Conductor*%
%TO.N,GND*%
G36*
X98342539Y-35720185D02*
G01*
X98388294Y-35772989D01*
X98399500Y-35824500D01*
X98399500Y-74575500D01*
X98379815Y-74642539D01*
X98327011Y-74688294D01*
X98275500Y-74699500D01*
X67524500Y-74699500D01*
X67457461Y-74679815D01*
X67411706Y-74627011D01*
X67400500Y-74575500D01*
X67400500Y-71200000D01*
X67695065Y-71200000D01*
X67714786Y-71526038D01*
X67773667Y-71847341D01*
X67870835Y-72159164D01*
X67870839Y-72159175D01*
X68004897Y-72457041D01*
X68004898Y-72457043D01*
X68173887Y-72736586D01*
X68321477Y-72924968D01*
X69360554Y-71885891D01*
X69421877Y-71852406D01*
X69491569Y-71857390D01*
X69547502Y-71899262D01*
X69549242Y-71901644D01*
X69564893Y-71923623D01*
X69564895Y-71923625D01*
X69711041Y-72062975D01*
X69745976Y-72123484D01*
X69742651Y-72193274D01*
X69713152Y-72240399D01*
X68675030Y-73278521D01*
X68675030Y-73278522D01*
X68863414Y-73426112D01*
X68863423Y-73426118D01*
X69142956Y-73595101D01*
X69142958Y-73595102D01*
X69440824Y-73729160D01*
X69440835Y-73729164D01*
X69752658Y-73826332D01*
X70073961Y-73885213D01*
X70400000Y-73904934D01*
X70726038Y-73885213D01*
X71047341Y-73826332D01*
X71359164Y-73729164D01*
X71359175Y-73729160D01*
X71657041Y-73595102D01*
X71657043Y-73595101D01*
X71936576Y-73426118D01*
X71936584Y-73426112D01*
X72124968Y-73278522D01*
X72124968Y-73278521D01*
X71084234Y-72237787D01*
X71050749Y-72176464D01*
X71055733Y-72106772D01*
X71095263Y-72052636D01*
X71162540Y-71999729D01*
X71256723Y-71891035D01*
X71315496Y-71853264D01*
X71385365Y-71853263D01*
X71438113Y-71884560D01*
X72478521Y-72924968D01*
X72478522Y-72924968D01*
X72626112Y-72736584D01*
X72626118Y-72736576D01*
X72795101Y-72457043D01*
X72795102Y-72457041D01*
X72929160Y-72159175D01*
X72929164Y-72159164D01*
X73026332Y-71847341D01*
X73085213Y-71526038D01*
X73104934Y-71200000D01*
X92695065Y-71200000D01*
X92714786Y-71526038D01*
X92773667Y-71847341D01*
X92870835Y-72159164D01*
X92870839Y-72159175D01*
X93004897Y-72457041D01*
X93004898Y-72457043D01*
X93173887Y-72736586D01*
X93321477Y-72924968D01*
X94360554Y-71885891D01*
X94421877Y-71852406D01*
X94491569Y-71857390D01*
X94547502Y-71899262D01*
X94549242Y-71901644D01*
X94564893Y-71923623D01*
X94564895Y-71923625D01*
X94711041Y-72062975D01*
X94745976Y-72123484D01*
X94742651Y-72193274D01*
X94713152Y-72240399D01*
X93675030Y-73278521D01*
X93675030Y-73278522D01*
X93863414Y-73426112D01*
X93863423Y-73426118D01*
X94142956Y-73595101D01*
X94142958Y-73595102D01*
X94440824Y-73729160D01*
X94440835Y-73729164D01*
X94752658Y-73826332D01*
X95073961Y-73885213D01*
X95400000Y-73904934D01*
X95726038Y-73885213D01*
X96047341Y-73826332D01*
X96359164Y-73729164D01*
X96359175Y-73729160D01*
X96657041Y-73595102D01*
X96657043Y-73595101D01*
X96936576Y-73426118D01*
X96936584Y-73426112D01*
X97124968Y-73278522D01*
X97124968Y-73278521D01*
X96084234Y-72237787D01*
X96050749Y-72176464D01*
X96055733Y-72106772D01*
X96095263Y-72052636D01*
X96162540Y-71999729D01*
X96256723Y-71891035D01*
X96315496Y-71853264D01*
X96385365Y-71853263D01*
X96438113Y-71884560D01*
X97478521Y-72924968D01*
X97478522Y-72924968D01*
X97626112Y-72736584D01*
X97626118Y-72736576D01*
X97795101Y-72457043D01*
X97795102Y-72457041D01*
X97929160Y-72159175D01*
X97929164Y-72159164D01*
X98026332Y-71847341D01*
X98085213Y-71526038D01*
X98104934Y-71200000D01*
X98085213Y-70873961D01*
X98026332Y-70552658D01*
X97929164Y-70240835D01*
X97929160Y-70240824D01*
X97795102Y-69942958D01*
X97795101Y-69942956D01*
X97626118Y-69663423D01*
X97626112Y-69663414D01*
X97478521Y-69475030D01*
X96439444Y-70514107D01*
X96378121Y-70547592D01*
X96308429Y-70542608D01*
X96252496Y-70500736D01*
X96250755Y-70498352D01*
X96235108Y-70476378D01*
X96235104Y-70476374D01*
X96088957Y-70337023D01*
X96054022Y-70276514D01*
X96057347Y-70206724D01*
X96086846Y-70159599D01*
X97124968Y-69121477D01*
X97124968Y-69121476D01*
X96936586Y-68973887D01*
X96657043Y-68804898D01*
X96657041Y-68804897D01*
X96359175Y-68670839D01*
X96359164Y-68670835D01*
X96047341Y-68573667D01*
X95726038Y-68514786D01*
X95400000Y-68495065D01*
X95073961Y-68514786D01*
X94752658Y-68573667D01*
X94440835Y-68670835D01*
X94440824Y-68670839D01*
X94142958Y-68804897D01*
X94142956Y-68804898D01*
X93863423Y-68973881D01*
X93675030Y-69121476D01*
X93675030Y-69121477D01*
X94715765Y-70162212D01*
X94749250Y-70223535D01*
X94744266Y-70293227D01*
X94704737Y-70347363D01*
X94637458Y-70400272D01*
X94637453Y-70400277D01*
X94543278Y-70508960D01*
X94484500Y-70546734D01*
X94414630Y-70546734D01*
X94361885Y-70515438D01*
X93321477Y-69475030D01*
X93321476Y-69475030D01*
X93173881Y-69663423D01*
X93004898Y-69942956D01*
X93004897Y-69942958D01*
X92870839Y-70240824D01*
X92870835Y-70240835D01*
X92773667Y-70552658D01*
X92714786Y-70873961D01*
X92695065Y-71200000D01*
X73104934Y-71200000D01*
X73085213Y-70873961D01*
X73026332Y-70552658D01*
X72929164Y-70240835D01*
X72929160Y-70240824D01*
X72795102Y-69942958D01*
X72795101Y-69942956D01*
X72626118Y-69663423D01*
X72626112Y-69663414D01*
X72478521Y-69475030D01*
X71439444Y-70514107D01*
X71378121Y-70547592D01*
X71308429Y-70542608D01*
X71252496Y-70500736D01*
X71250755Y-70498352D01*
X71235108Y-70476378D01*
X71235104Y-70476374D01*
X71088957Y-70337023D01*
X71054022Y-70276514D01*
X71057347Y-70206724D01*
X71086846Y-70159599D01*
X72124968Y-69121477D01*
X72124968Y-69121476D01*
X71936586Y-68973887D01*
X71657043Y-68804898D01*
X71657041Y-68804897D01*
X71359175Y-68670839D01*
X71359164Y-68670835D01*
X71047341Y-68573667D01*
X70726038Y-68514786D01*
X70400000Y-68495065D01*
X70073961Y-68514786D01*
X69752658Y-68573667D01*
X69440835Y-68670835D01*
X69440824Y-68670839D01*
X69142958Y-68804897D01*
X69142956Y-68804898D01*
X68863423Y-68973881D01*
X68675030Y-69121476D01*
X68675030Y-69121477D01*
X69715765Y-70162212D01*
X69749250Y-70223535D01*
X69744266Y-70293227D01*
X69704737Y-70347363D01*
X69637458Y-70400272D01*
X69637453Y-70400277D01*
X69543278Y-70508960D01*
X69484500Y-70546734D01*
X69414630Y-70546734D01*
X69361885Y-70515438D01*
X68321477Y-69475030D01*
X68321476Y-69475030D01*
X68173881Y-69663423D01*
X68004898Y-69942956D01*
X68004897Y-69942958D01*
X67870839Y-70240824D01*
X67870835Y-70240835D01*
X67773667Y-70552658D01*
X67714786Y-70873961D01*
X67695065Y-71200000D01*
X67400500Y-71200000D01*
X67400500Y-67433870D01*
X76623500Y-67433870D01*
X76623501Y-67433876D01*
X76629908Y-67493483D01*
X76680202Y-67628328D01*
X76680206Y-67628335D01*
X76766452Y-67743544D01*
X76766455Y-67743547D01*
X76881664Y-67829793D01*
X76881671Y-67829797D01*
X77016517Y-67880091D01*
X77016516Y-67880091D01*
X77023444Y-67880835D01*
X77076127Y-67886500D01*
X78871872Y-67886499D01*
X78931483Y-67880091D01*
X79066331Y-67829796D01*
X79181546Y-67743546D01*
X79267796Y-67628331D01*
X79316810Y-67496916D01*
X79358681Y-67440984D01*
X79424145Y-67416566D01*
X79492418Y-67431417D01*
X79520672Y-67452569D01*
X79642599Y-67574495D01*
X79739384Y-67642264D01*
X79836165Y-67710032D01*
X79836167Y-67710033D01*
X79836170Y-67710035D01*
X80050337Y-67809903D01*
X80278592Y-67871063D01*
X80455034Y-67886500D01*
X80513999Y-67891659D01*
X80514000Y-67891659D01*
X80514001Y-67891659D01*
X80572966Y-67886500D01*
X80749408Y-67871063D01*
X80977663Y-67809903D01*
X81191830Y-67710035D01*
X81385401Y-67574495D01*
X81552495Y-67407401D01*
X81682424Y-67221842D01*
X81737002Y-67178217D01*
X81806500Y-67171023D01*
X81868855Y-67202546D01*
X81885575Y-67221842D01*
X82015281Y-67407082D01*
X82015505Y-67407401D01*
X82182599Y-67574495D01*
X82279384Y-67642264D01*
X82376165Y-67710032D01*
X82376167Y-67710033D01*
X82376170Y-67710035D01*
X82590337Y-67809903D01*
X82818592Y-67871063D01*
X82995034Y-67886500D01*
X83053999Y-67891659D01*
X83054000Y-67891659D01*
X83054001Y-67891659D01*
X83112966Y-67886500D01*
X83289408Y-67871063D01*
X83517663Y-67809903D01*
X83731830Y-67710035D01*
X83925401Y-67574495D01*
X84092495Y-67407401D01*
X84222424Y-67221842D01*
X84277002Y-67178217D01*
X84346500Y-67171023D01*
X84408855Y-67202546D01*
X84425575Y-67221842D01*
X84555281Y-67407082D01*
X84555505Y-67407401D01*
X84722599Y-67574495D01*
X84819384Y-67642264D01*
X84916165Y-67710032D01*
X84916167Y-67710033D01*
X84916170Y-67710035D01*
X85130337Y-67809903D01*
X85358592Y-67871063D01*
X85535034Y-67886500D01*
X85593999Y-67891659D01*
X85594000Y-67891659D01*
X85594001Y-67891659D01*
X85652966Y-67886500D01*
X85829408Y-67871063D01*
X86057663Y-67809903D01*
X86271830Y-67710035D01*
X86465401Y-67574495D01*
X86632495Y-67407401D01*
X86762730Y-67221405D01*
X86817307Y-67177781D01*
X86886805Y-67170587D01*
X86949160Y-67202110D01*
X86965879Y-67221405D01*
X87095890Y-67407078D01*
X87262917Y-67574105D01*
X87456421Y-67709600D01*
X87670507Y-67809429D01*
X87670516Y-67809433D01*
X87884000Y-67866634D01*
X87884000Y-67148301D01*
X87903685Y-67081262D01*
X87956489Y-67035507D01*
X88025647Y-67025563D01*
X88098237Y-67036000D01*
X88098238Y-67036000D01*
X88169762Y-67036000D01*
X88169763Y-67036000D01*
X88242353Y-67025563D01*
X88311512Y-67035507D01*
X88364315Y-67081262D01*
X88384000Y-67148301D01*
X88384000Y-67866633D01*
X88597483Y-67809433D01*
X88597492Y-67809429D01*
X88811578Y-67709600D01*
X89005082Y-67574105D01*
X89172105Y-67407082D01*
X89307600Y-67213578D01*
X89407429Y-66999492D01*
X89407432Y-66999486D01*
X89464636Y-66786000D01*
X88747347Y-66786000D01*
X88680308Y-66766315D01*
X88634553Y-66713511D01*
X88624609Y-66644353D01*
X88628369Y-66627067D01*
X88634000Y-66607888D01*
X88634000Y-66464111D01*
X88628369Y-66444933D01*
X88628370Y-66375064D01*
X88666145Y-66316286D01*
X88729701Y-66287262D01*
X88747347Y-66286000D01*
X89464636Y-66286000D01*
X89464635Y-66285999D01*
X89407432Y-66072513D01*
X89407429Y-66072507D01*
X89307600Y-65858422D01*
X89307599Y-65858420D01*
X89172113Y-65664926D01*
X89172108Y-65664920D01*
X89005082Y-65497894D01*
X88811578Y-65362399D01*
X88597492Y-65262570D01*
X88597486Y-65262567D01*
X88384000Y-65205364D01*
X88384000Y-65923698D01*
X88364315Y-65990737D01*
X88311511Y-66036492D01*
X88242355Y-66046436D01*
X88169766Y-66036000D01*
X88169763Y-66036000D01*
X88098237Y-66036000D01*
X88098233Y-66036000D01*
X88025645Y-66046436D01*
X87956487Y-66036492D01*
X87903684Y-65990736D01*
X87884000Y-65923698D01*
X87884000Y-65205364D01*
X87883999Y-65205364D01*
X87670513Y-65262567D01*
X87670507Y-65262570D01*
X87456422Y-65362399D01*
X87456420Y-65362400D01*
X87262926Y-65497886D01*
X87262920Y-65497891D01*
X87095891Y-65664920D01*
X87095890Y-65664922D01*
X86965880Y-65850595D01*
X86911303Y-65894219D01*
X86841804Y-65901412D01*
X86779450Y-65869890D01*
X86762730Y-65850594D01*
X86632494Y-65664597D01*
X86465402Y-65497506D01*
X86465395Y-65497501D01*
X86271834Y-65361967D01*
X86271830Y-65361965D01*
X86271830Y-65361964D01*
X86057663Y-65262097D01*
X86057659Y-65262096D01*
X86057655Y-65262094D01*
X85829413Y-65200938D01*
X85829403Y-65200936D01*
X85594001Y-65180341D01*
X85593999Y-65180341D01*
X85358596Y-65200936D01*
X85358586Y-65200938D01*
X85130344Y-65262094D01*
X85130335Y-65262098D01*
X84916171Y-65361964D01*
X84916169Y-65361965D01*
X84722597Y-65497505D01*
X84555505Y-65664597D01*
X84425575Y-65850158D01*
X84370998Y-65893783D01*
X84301500Y-65900977D01*
X84239145Y-65869454D01*
X84222425Y-65850158D01*
X84092494Y-65664597D01*
X83925402Y-65497506D01*
X83925395Y-65497501D01*
X83731834Y-65361967D01*
X83731830Y-65361965D01*
X83731829Y-65361964D01*
X83517663Y-65262097D01*
X83517659Y-65262096D01*
X83517655Y-65262094D01*
X83289413Y-65200938D01*
X83289403Y-65200936D01*
X83054001Y-65180341D01*
X83053999Y-65180341D01*
X82818596Y-65200936D01*
X82818586Y-65200938D01*
X82590344Y-65262094D01*
X82590335Y-65262098D01*
X82376171Y-65361964D01*
X82376169Y-65361965D01*
X82182597Y-65497505D01*
X82015505Y-65664597D01*
X81885575Y-65850158D01*
X81830998Y-65893783D01*
X81761500Y-65900977D01*
X81699145Y-65869454D01*
X81682425Y-65850158D01*
X81552494Y-65664597D01*
X81385402Y-65497506D01*
X81385395Y-65497501D01*
X81191834Y-65361967D01*
X81191830Y-65361965D01*
X81191828Y-65361964D01*
X80977663Y-65262097D01*
X80977659Y-65262096D01*
X80977655Y-65262094D01*
X80749413Y-65200938D01*
X80749403Y-65200936D01*
X80514001Y-65180341D01*
X80513999Y-65180341D01*
X80278596Y-65200936D01*
X80278586Y-65200938D01*
X80050344Y-65262094D01*
X80050335Y-65262098D01*
X79836171Y-65361964D01*
X79836169Y-65361965D01*
X79642600Y-65497503D01*
X79520673Y-65619430D01*
X79459350Y-65652914D01*
X79389658Y-65647930D01*
X79333725Y-65606058D01*
X79316810Y-65575081D01*
X79267797Y-65443671D01*
X79267793Y-65443664D01*
X79181547Y-65328455D01*
X79181544Y-65328452D01*
X79066335Y-65242206D01*
X79066328Y-65242202D01*
X78931482Y-65191908D01*
X78931483Y-65191908D01*
X78871883Y-65185501D01*
X78871881Y-65185500D01*
X78871873Y-65185500D01*
X78871864Y-65185500D01*
X77076129Y-65185500D01*
X77076123Y-65185501D01*
X77016516Y-65191908D01*
X76881671Y-65242202D01*
X76881664Y-65242206D01*
X76766455Y-65328452D01*
X76766452Y-65328455D01*
X76680206Y-65443664D01*
X76680202Y-65443671D01*
X76629908Y-65578517D01*
X76623501Y-65638116D01*
X76623500Y-65638135D01*
X76623500Y-67433870D01*
X67400500Y-67433870D01*
X67400500Y-59932005D01*
X78096357Y-59932005D01*
X78116890Y-60179812D01*
X78116892Y-60179824D01*
X78177936Y-60420881D01*
X78277826Y-60648606D01*
X78413833Y-60856782D01*
X78413836Y-60856785D01*
X78582256Y-61039738D01*
X78778491Y-61192474D01*
X78997190Y-61310828D01*
X79232386Y-61391571D01*
X79477665Y-61432500D01*
X79726335Y-61432500D01*
X79971614Y-61391571D01*
X80206810Y-61310828D01*
X80425509Y-61192474D01*
X80621744Y-61039738D01*
X80790164Y-60856785D01*
X80926173Y-60648607D01*
X81026063Y-60420881D01*
X81087108Y-60179821D01*
X81107643Y-59932005D01*
X84596357Y-59932005D01*
X84616890Y-60179812D01*
X84616892Y-60179824D01*
X84677936Y-60420881D01*
X84777826Y-60648606D01*
X84913833Y-60856782D01*
X84913836Y-60856785D01*
X85082256Y-61039738D01*
X85278491Y-61192474D01*
X85497190Y-61310828D01*
X85732386Y-61391571D01*
X85977665Y-61432500D01*
X86226335Y-61432500D01*
X86471614Y-61391571D01*
X86706810Y-61310828D01*
X86925509Y-61192474D01*
X87121744Y-61039738D01*
X87290164Y-60856785D01*
X87426173Y-60648607D01*
X87526063Y-60420881D01*
X87587108Y-60179821D01*
X87607643Y-59932000D01*
X87587108Y-59684179D01*
X87526063Y-59443119D01*
X87426173Y-59215393D01*
X87426173Y-59215392D01*
X87290166Y-59007217D01*
X87268557Y-58983744D01*
X87121744Y-58824262D01*
X86925509Y-58671526D01*
X86925507Y-58671525D01*
X86925506Y-58671524D01*
X86706811Y-58553172D01*
X86706802Y-58553169D01*
X86471616Y-58472429D01*
X86226335Y-58431500D01*
X85977665Y-58431500D01*
X85732383Y-58472429D01*
X85497197Y-58553169D01*
X85497188Y-58553172D01*
X85278493Y-58671524D01*
X85082257Y-58824261D01*
X84913833Y-59007217D01*
X84777826Y-59215393D01*
X84677936Y-59443118D01*
X84616892Y-59684175D01*
X84616890Y-59684187D01*
X84596357Y-59931994D01*
X84596357Y-59932005D01*
X81107643Y-59932005D01*
X81107643Y-59932000D01*
X81087108Y-59684179D01*
X81026063Y-59443119D01*
X80926173Y-59215393D01*
X80926172Y-59215392D01*
X80790166Y-59007217D01*
X80768557Y-58983744D01*
X80621744Y-58824262D01*
X80425509Y-58671526D01*
X80425507Y-58671525D01*
X80425506Y-58671524D01*
X80206811Y-58553172D01*
X80206802Y-58553169D01*
X79971616Y-58472429D01*
X79726335Y-58431500D01*
X79477665Y-58431500D01*
X79232383Y-58472429D01*
X78997197Y-58553169D01*
X78997188Y-58553172D01*
X78778493Y-58671524D01*
X78582257Y-58824261D01*
X78413833Y-59007217D01*
X78277826Y-59215393D01*
X78177936Y-59443118D01*
X78116892Y-59684175D01*
X78116890Y-59684187D01*
X78096357Y-59931994D01*
X78096357Y-59932005D01*
X67400500Y-59932005D01*
X67400500Y-54927088D01*
X73496854Y-54927088D01*
X73557305Y-55165804D01*
X73657161Y-55393455D01*
X73793126Y-55601566D01*
X73961486Y-55784452D01*
X73961496Y-55784461D01*
X74157656Y-55937139D01*
X74157665Y-55937145D01*
X74376279Y-56055452D01*
X74376290Y-56055457D01*
X74611401Y-56136171D01*
X74730893Y-56156111D01*
X74730894Y-56156110D01*
X74730894Y-55341740D01*
X74750579Y-55274701D01*
X74803383Y-55228946D01*
X74872541Y-55219002D01*
X74888341Y-55222336D01*
X74905298Y-55227088D01*
X74905300Y-55227088D01*
X75018516Y-55227088D01*
X75090010Y-55217261D01*
X75159104Y-55227633D01*
X75211623Y-55273715D01*
X75230894Y-55340106D01*
X75230894Y-56156111D01*
X75350386Y-56136171D01*
X75585497Y-56055457D01*
X75585508Y-56055452D01*
X75804122Y-55937145D01*
X75804131Y-55937139D01*
X76000291Y-55784461D01*
X76000301Y-55784452D01*
X76168661Y-55601566D01*
X76279440Y-55432005D01*
X78096859Y-55432005D01*
X78117385Y-55679729D01*
X78117387Y-55679738D01*
X78178412Y-55920717D01*
X78278266Y-56148364D01*
X78378564Y-56301882D01*
X78953482Y-55726964D01*
X79014805Y-55693479D01*
X79084496Y-55698463D01*
X79140430Y-55740334D01*
X79143514Y-55745249D01*
X79143549Y-55745225D01*
X79148441Y-55752156D01*
X79251637Y-55862651D01*
X79251638Y-55862652D01*
X79286698Y-55883973D01*
X79333749Y-55935623D01*
X79345407Y-56004513D01*
X79317970Y-56068770D01*
X79309950Y-56077601D01*
X78731942Y-56655609D01*
X78778768Y-56692055D01*
X78778770Y-56692056D01*
X78997385Y-56810364D01*
X78997396Y-56810369D01*
X79232506Y-56891083D01*
X79477707Y-56932000D01*
X79726293Y-56932000D01*
X79971493Y-56891083D01*
X80206603Y-56810369D01*
X80206614Y-56810364D01*
X80425228Y-56692057D01*
X80425231Y-56692055D01*
X80472056Y-56655609D01*
X79895165Y-56078718D01*
X79861680Y-56017395D01*
X79866664Y-55947703D01*
X79904588Y-55894853D01*
X80007739Y-55810934D01*
X80058052Y-55739655D01*
X80112793Y-55696239D01*
X80182318Y-55689310D01*
X80244553Y-55721068D01*
X80247037Y-55723484D01*
X80825434Y-56301882D01*
X80925731Y-56148369D01*
X81025587Y-55920717D01*
X81086612Y-55679738D01*
X81086614Y-55679729D01*
X81107141Y-55432005D01*
X84596858Y-55432005D01*
X84617385Y-55679729D01*
X84617387Y-55679738D01*
X84678412Y-55920717D01*
X84778266Y-56148364D01*
X84878564Y-56301882D01*
X85453482Y-55726964D01*
X85514805Y-55693479D01*
X85584496Y-55698463D01*
X85640430Y-55740334D01*
X85643514Y-55745249D01*
X85643549Y-55745225D01*
X85648441Y-55752156D01*
X85751637Y-55862651D01*
X85751638Y-55862652D01*
X85786698Y-55883973D01*
X85833749Y-55935623D01*
X85845407Y-56004513D01*
X85817970Y-56068770D01*
X85809950Y-56077601D01*
X85231942Y-56655609D01*
X85278768Y-56692055D01*
X85278770Y-56692056D01*
X85497385Y-56810364D01*
X85497396Y-56810369D01*
X85732506Y-56891083D01*
X85977707Y-56932000D01*
X86226293Y-56932000D01*
X86471493Y-56891083D01*
X86706603Y-56810369D01*
X86706614Y-56810364D01*
X86925228Y-56692057D01*
X86925231Y-56692055D01*
X86972056Y-56655609D01*
X86395165Y-56078718D01*
X86361680Y-56017395D01*
X86366664Y-55947703D01*
X86404588Y-55894853D01*
X86507739Y-55810934D01*
X86558052Y-55739655D01*
X86612793Y-55696239D01*
X86682318Y-55689310D01*
X86744553Y-55721068D01*
X86747037Y-55723484D01*
X87325434Y-56301882D01*
X87425731Y-56148369D01*
X87525587Y-55920717D01*
X87586612Y-55679738D01*
X87586614Y-55679729D01*
X87607141Y-55432005D01*
X87607141Y-55431994D01*
X87586614Y-55184270D01*
X87586612Y-55184261D01*
X87525587Y-54943282D01*
X87518484Y-54927088D01*
X89389068Y-54927088D01*
X89449519Y-55165804D01*
X89549375Y-55393455D01*
X89685340Y-55601566D01*
X89853700Y-55784452D01*
X89853710Y-55784461D01*
X90049870Y-55937139D01*
X90049879Y-55937145D01*
X90268493Y-56055452D01*
X90268504Y-56055457D01*
X90503615Y-56136171D01*
X90623107Y-56156111D01*
X90623108Y-56156110D01*
X90623108Y-55341740D01*
X90642793Y-55274701D01*
X90695597Y-55228946D01*
X90764755Y-55219002D01*
X90780555Y-55222336D01*
X90797512Y-55227088D01*
X90797514Y-55227088D01*
X90910730Y-55227088D01*
X90982224Y-55217261D01*
X91051318Y-55227633D01*
X91103837Y-55273715D01*
X91123108Y-55340106D01*
X91123108Y-56156111D01*
X91242600Y-56136171D01*
X91477711Y-56055457D01*
X91477722Y-56055452D01*
X91696336Y-55937145D01*
X91696345Y-55937139D01*
X91892505Y-55784461D01*
X91892515Y-55784452D01*
X92060875Y-55601566D01*
X92196840Y-55393455D01*
X92296696Y-55165804D01*
X92357148Y-54927088D01*
X91540064Y-54927088D01*
X91473025Y-54907403D01*
X91427270Y-54854599D01*
X91416353Y-54794625D01*
X91416916Y-54786397D01*
X91426985Y-54639202D01*
X91413917Y-54576315D01*
X91419551Y-54506674D01*
X91461942Y-54451133D01*
X91527631Y-54427327D01*
X91535324Y-54427088D01*
X92357148Y-54427088D01*
X92296696Y-54188371D01*
X92196840Y-53960720D01*
X92060875Y-53752609D01*
X91892515Y-53569723D01*
X91892505Y-53569714D01*
X91696345Y-53417036D01*
X91696336Y-53417030D01*
X91477722Y-53298723D01*
X91477711Y-53298718D01*
X91242600Y-53218004D01*
X91123108Y-53198064D01*
X91123108Y-54012435D01*
X91103423Y-54079474D01*
X91050619Y-54125229D01*
X90981461Y-54135173D01*
X90965655Y-54131837D01*
X90948706Y-54127088D01*
X90948704Y-54127088D01*
X90835486Y-54127088D01*
X90835484Y-54127088D01*
X90763992Y-54136914D01*
X90694897Y-54126541D01*
X90642378Y-54080459D01*
X90623108Y-54014069D01*
X90623108Y-53198064D01*
X90623107Y-53198064D01*
X90503615Y-53218004D01*
X90268504Y-53298718D01*
X90268493Y-53298723D01*
X90049879Y-53417030D01*
X90049870Y-53417036D01*
X89853710Y-53569714D01*
X89853700Y-53569723D01*
X89685340Y-53752609D01*
X89549375Y-53960720D01*
X89449519Y-54188371D01*
X89389068Y-54427088D01*
X90206152Y-54427088D01*
X90273191Y-54446773D01*
X90318946Y-54499577D01*
X90329863Y-54559551D01*
X90329549Y-54564133D01*
X90329549Y-54564135D01*
X90319231Y-54714974D01*
X90319368Y-54715632D01*
X90332299Y-54777860D01*
X90326665Y-54847502D01*
X90284274Y-54903043D01*
X90218585Y-54926849D01*
X90210892Y-54927088D01*
X89389068Y-54927088D01*
X87518484Y-54927088D01*
X87425731Y-54715630D01*
X87325434Y-54562116D01*
X86750517Y-55137034D01*
X86689194Y-55170519D01*
X86619502Y-55165535D01*
X86563569Y-55123663D01*
X86560486Y-55118750D01*
X86560451Y-55118775D01*
X86555558Y-55111843D01*
X86500661Y-55053064D01*
X86452362Y-55001348D01*
X86417300Y-54980026D01*
X86370248Y-54928374D01*
X86358591Y-54859484D01*
X86386029Y-54795227D01*
X86394048Y-54786397D01*
X86972056Y-54208389D01*
X86925229Y-54171943D01*
X86706614Y-54053635D01*
X86706603Y-54053630D01*
X86471493Y-53972916D01*
X86226293Y-53932000D01*
X85977707Y-53932000D01*
X85732506Y-53972916D01*
X85497396Y-54053630D01*
X85497390Y-54053632D01*
X85278761Y-54171949D01*
X85231942Y-54208388D01*
X85231942Y-54208390D01*
X85808833Y-54785280D01*
X85842318Y-54846603D01*
X85837334Y-54916294D01*
X85799408Y-54969148D01*
X85696262Y-55053064D01*
X85696258Y-55053069D01*
X85645947Y-55124343D01*
X85591204Y-55167760D01*
X85521679Y-55174689D01*
X85459444Y-55142930D01*
X85456962Y-55140515D01*
X84878564Y-54562116D01*
X84778267Y-54715632D01*
X84678412Y-54943282D01*
X84617387Y-55184261D01*
X84617385Y-55184270D01*
X84596858Y-55431994D01*
X84596858Y-55432005D01*
X81107141Y-55432005D01*
X81107141Y-55431994D01*
X81086614Y-55184270D01*
X81086612Y-55184261D01*
X81025587Y-54943282D01*
X80925731Y-54715630D01*
X80825434Y-54562116D01*
X80250517Y-55137034D01*
X80189194Y-55170519D01*
X80119502Y-55165535D01*
X80063569Y-55123663D01*
X80060486Y-55118750D01*
X80060451Y-55118775D01*
X80055558Y-55111843D01*
X80000661Y-55053064D01*
X79952362Y-55001348D01*
X79917300Y-54980026D01*
X79870248Y-54928374D01*
X79858591Y-54859484D01*
X79886029Y-54795227D01*
X79894048Y-54786397D01*
X80472056Y-54208389D01*
X80425229Y-54171943D01*
X80206614Y-54053635D01*
X80206603Y-54053630D01*
X79971493Y-53972916D01*
X79726293Y-53932000D01*
X79477707Y-53932000D01*
X79232506Y-53972916D01*
X78997396Y-54053630D01*
X78997390Y-54053632D01*
X78778761Y-54171949D01*
X78731942Y-54208388D01*
X78731942Y-54208390D01*
X79308833Y-54785280D01*
X79342318Y-54846603D01*
X79337334Y-54916294D01*
X79299408Y-54969148D01*
X79196262Y-55053064D01*
X79196258Y-55053069D01*
X79145947Y-55124343D01*
X79091204Y-55167760D01*
X79021679Y-55174689D01*
X78959444Y-55142930D01*
X78956962Y-55140515D01*
X78378564Y-54562116D01*
X78278267Y-54715632D01*
X78178412Y-54943282D01*
X78117387Y-55184261D01*
X78117385Y-55184270D01*
X78096859Y-55431994D01*
X78096859Y-55432005D01*
X76279440Y-55432005D01*
X76304626Y-55393455D01*
X76404482Y-55165804D01*
X76464934Y-54927088D01*
X75647850Y-54927088D01*
X75580811Y-54907403D01*
X75535056Y-54854599D01*
X75524139Y-54794625D01*
X75524702Y-54786397D01*
X75534771Y-54639202D01*
X75521703Y-54576315D01*
X75527337Y-54506674D01*
X75569728Y-54451133D01*
X75635417Y-54427327D01*
X75643110Y-54427088D01*
X76464934Y-54427088D01*
X76404482Y-54188371D01*
X76304626Y-53960720D01*
X76168661Y-53752609D01*
X76000301Y-53569723D01*
X76000291Y-53569714D01*
X75804131Y-53417036D01*
X75804122Y-53417030D01*
X75585508Y-53298723D01*
X75585497Y-53298718D01*
X75350386Y-53218004D01*
X75230894Y-53198064D01*
X75230894Y-54012435D01*
X75211209Y-54079474D01*
X75158405Y-54125229D01*
X75089247Y-54135173D01*
X75073441Y-54131837D01*
X75056492Y-54127088D01*
X75056490Y-54127088D01*
X74943272Y-54127088D01*
X74943270Y-54127088D01*
X74871778Y-54136914D01*
X74802683Y-54126541D01*
X74750164Y-54080459D01*
X74730894Y-54014069D01*
X74730894Y-53198064D01*
X74730893Y-53198064D01*
X74611401Y-53218004D01*
X74376290Y-53298718D01*
X74376279Y-53298723D01*
X74157665Y-53417030D01*
X74157656Y-53417036D01*
X73961496Y-53569714D01*
X73961486Y-53569723D01*
X73793126Y-53752609D01*
X73657161Y-53960720D01*
X73557305Y-54188371D01*
X73496854Y-54427088D01*
X74313938Y-54427088D01*
X74380977Y-54446773D01*
X74426732Y-54499577D01*
X74437649Y-54559551D01*
X74437335Y-54564133D01*
X74437335Y-54564135D01*
X74427017Y-54714974D01*
X74427154Y-54715632D01*
X74440085Y-54777860D01*
X74434451Y-54847502D01*
X74392060Y-54903043D01*
X74326371Y-54926849D01*
X74318678Y-54927088D01*
X73496854Y-54927088D01*
X67400500Y-54927088D01*
X67400500Y-51495112D01*
X70293270Y-51495112D01*
X70313803Y-51742919D01*
X70313805Y-51742931D01*
X70374849Y-51983988D01*
X70474739Y-52211713D01*
X70610746Y-52419889D01*
X70610749Y-52419892D01*
X70779169Y-52602845D01*
X70975404Y-52755581D01*
X71194103Y-52873935D01*
X71429299Y-52954678D01*
X71674578Y-52995607D01*
X71923248Y-52995607D01*
X72168527Y-52954678D01*
X72403723Y-52873935D01*
X72622422Y-52755581D01*
X72818657Y-52602845D01*
X72987077Y-52419892D01*
X73123086Y-52211714D01*
X73222976Y-51983988D01*
X73284021Y-51742928D01*
X73304556Y-51495107D01*
X73301585Y-51459258D01*
X73284022Y-51247294D01*
X73284020Y-51247282D01*
X73222976Y-51006225D01*
X73123086Y-50778500D01*
X72987079Y-50570324D01*
X72885359Y-50459827D01*
X72818657Y-50387369D01*
X72746097Y-50330893D01*
X78093048Y-50330893D01*
X78153499Y-50569609D01*
X78253355Y-50797260D01*
X78389320Y-51005371D01*
X78557680Y-51188257D01*
X78557690Y-51188266D01*
X78753850Y-51340944D01*
X78753859Y-51340950D01*
X78972473Y-51459257D01*
X78972484Y-51459262D01*
X79207595Y-51539976D01*
X79327087Y-51559916D01*
X79327088Y-51559915D01*
X79327088Y-50745545D01*
X79346773Y-50678506D01*
X79399577Y-50632751D01*
X79468735Y-50622807D01*
X79484535Y-50626141D01*
X79501492Y-50630893D01*
X79501494Y-50630893D01*
X79614710Y-50630893D01*
X79686204Y-50621066D01*
X79755298Y-50631438D01*
X79807817Y-50677520D01*
X79827088Y-50743911D01*
X79827088Y-51559916D01*
X79946580Y-51539976D01*
X80181691Y-51459262D01*
X80181702Y-51459257D01*
X80400316Y-51340950D01*
X80400325Y-51340944D01*
X80596485Y-51188266D01*
X80596495Y-51188257D01*
X80764855Y-51005371D01*
X80900820Y-50797260D01*
X81000676Y-50569609D01*
X81061128Y-50330894D01*
X84792873Y-50330894D01*
X84853324Y-50569610D01*
X84953180Y-50797261D01*
X85089145Y-51005372D01*
X85257505Y-51188258D01*
X85257515Y-51188267D01*
X85453675Y-51340945D01*
X85453684Y-51340951D01*
X85672298Y-51459258D01*
X85672309Y-51459263D01*
X85907420Y-51539977D01*
X86026912Y-51559917D01*
X86026913Y-51559916D01*
X86026913Y-50745546D01*
X86046598Y-50678507D01*
X86099402Y-50632752D01*
X86168560Y-50622808D01*
X86184360Y-50626142D01*
X86201317Y-50630894D01*
X86201319Y-50630894D01*
X86314535Y-50630894D01*
X86386029Y-50621067D01*
X86455123Y-50631439D01*
X86507642Y-50677521D01*
X86526913Y-50743912D01*
X86526913Y-51559917D01*
X86646405Y-51539977D01*
X86777092Y-51495112D01*
X92549445Y-51495112D01*
X92569978Y-51742919D01*
X92569980Y-51742931D01*
X92631024Y-51983988D01*
X92730914Y-52211713D01*
X92866921Y-52419889D01*
X92866924Y-52419892D01*
X93035344Y-52602845D01*
X93231579Y-52755581D01*
X93450278Y-52873935D01*
X93685474Y-52954678D01*
X93930753Y-52995607D01*
X94179423Y-52995607D01*
X94424702Y-52954678D01*
X94659898Y-52873935D01*
X94878597Y-52755581D01*
X95074832Y-52602845D01*
X95243252Y-52419892D01*
X95379261Y-52211714D01*
X95479151Y-51983988D01*
X95540196Y-51742928D01*
X95560731Y-51495107D01*
X95557760Y-51459258D01*
X95540197Y-51247294D01*
X95540195Y-51247282D01*
X95479151Y-51006225D01*
X95379261Y-50778500D01*
X95243254Y-50570324D01*
X95141534Y-50459827D01*
X95074832Y-50387369D01*
X94878597Y-50234633D01*
X94878595Y-50234632D01*
X94878594Y-50234631D01*
X94659899Y-50116279D01*
X94659890Y-50116276D01*
X94424704Y-50035536D01*
X94179423Y-49994607D01*
X93930753Y-49994607D01*
X93685471Y-50035536D01*
X93450285Y-50116276D01*
X93450276Y-50116279D01*
X93231581Y-50234631D01*
X93035345Y-50387368D01*
X92866921Y-50570324D01*
X92730914Y-50778500D01*
X92631024Y-51006225D01*
X92569980Y-51247282D01*
X92569978Y-51247294D01*
X92549445Y-51495101D01*
X92549445Y-51495112D01*
X86777092Y-51495112D01*
X86881516Y-51459263D01*
X86881527Y-51459258D01*
X87100141Y-51340951D01*
X87100150Y-51340945D01*
X87296310Y-51188267D01*
X87296320Y-51188258D01*
X87464680Y-51005372D01*
X87600645Y-50797261D01*
X87700501Y-50569610D01*
X87760953Y-50330894D01*
X86943869Y-50330894D01*
X86876830Y-50311209D01*
X86831075Y-50258405D01*
X86820158Y-50198431D01*
X86821305Y-50181665D01*
X86830790Y-50043008D01*
X86817722Y-49980121D01*
X86823356Y-49910480D01*
X86865747Y-49854939D01*
X86931436Y-49831133D01*
X86939129Y-49830894D01*
X87760953Y-49830894D01*
X87700501Y-49592177D01*
X87600645Y-49364526D01*
X87464680Y-49156415D01*
X87296320Y-48973529D01*
X87296310Y-48973520D01*
X87100150Y-48820842D01*
X87100141Y-48820836D01*
X86881527Y-48702529D01*
X86881516Y-48702524D01*
X86646405Y-48621810D01*
X86526913Y-48601870D01*
X86526913Y-49416241D01*
X86507228Y-49483280D01*
X86454424Y-49529035D01*
X86385266Y-49538979D01*
X86369460Y-49535643D01*
X86352511Y-49530894D01*
X86352509Y-49530894D01*
X86239291Y-49530894D01*
X86239289Y-49530894D01*
X86167797Y-49540720D01*
X86098702Y-49530347D01*
X86046183Y-49484265D01*
X86026913Y-49417875D01*
X86026913Y-48601870D01*
X86026912Y-48601870D01*
X85907420Y-48621810D01*
X85672309Y-48702524D01*
X85672298Y-48702529D01*
X85453684Y-48820836D01*
X85453675Y-48820842D01*
X85257515Y-48973520D01*
X85257505Y-48973529D01*
X85089145Y-49156415D01*
X84953180Y-49364526D01*
X84853324Y-49592177D01*
X84792873Y-49830894D01*
X85609957Y-49830894D01*
X85676996Y-49850579D01*
X85722751Y-49903383D01*
X85733668Y-49963357D01*
X85733354Y-49967939D01*
X85733354Y-49967941D01*
X85723036Y-50118780D01*
X85736104Y-50181665D01*
X85736104Y-50181666D01*
X85730470Y-50251308D01*
X85688079Y-50306849D01*
X85622390Y-50330655D01*
X85614697Y-50330894D01*
X84792873Y-50330894D01*
X81061128Y-50330894D01*
X81061128Y-50330893D01*
X80244044Y-50330893D01*
X80177005Y-50311208D01*
X80131250Y-50258404D01*
X80120333Y-50198430D01*
X80130965Y-50043008D01*
X80117897Y-49980121D01*
X80123531Y-49910479D01*
X80165922Y-49854938D01*
X80231611Y-49831132D01*
X80239304Y-49830893D01*
X81061128Y-49830893D01*
X81000676Y-49592176D01*
X80900820Y-49364525D01*
X80764855Y-49156414D01*
X80596495Y-48973528D01*
X80596485Y-48973519D01*
X80400325Y-48820841D01*
X80400316Y-48820835D01*
X80181702Y-48702528D01*
X80181691Y-48702523D01*
X79946580Y-48621809D01*
X79827088Y-48601869D01*
X79827088Y-49416240D01*
X79807403Y-49483279D01*
X79754599Y-49529034D01*
X79685441Y-49538978D01*
X79669635Y-49535642D01*
X79652686Y-49530893D01*
X79652684Y-49530893D01*
X79539466Y-49530893D01*
X79539464Y-49530893D01*
X79467972Y-49540719D01*
X79398877Y-49530346D01*
X79346358Y-49484264D01*
X79327088Y-49417874D01*
X79327088Y-48601869D01*
X79327087Y-48601869D01*
X79207595Y-48621809D01*
X78972484Y-48702523D01*
X78972473Y-48702528D01*
X78753859Y-48820835D01*
X78753850Y-48820841D01*
X78557690Y-48973519D01*
X78557680Y-48973528D01*
X78389320Y-49156414D01*
X78253355Y-49364525D01*
X78153499Y-49592176D01*
X78093048Y-49830893D01*
X78910132Y-49830893D01*
X78977171Y-49850578D01*
X79022926Y-49903382D01*
X79033843Y-49963356D01*
X79033529Y-49967938D01*
X79033529Y-49967940D01*
X79023211Y-50118779D01*
X79036279Y-50181665D01*
X79030645Y-50251307D01*
X78988254Y-50306848D01*
X78922565Y-50330654D01*
X78914872Y-50330893D01*
X78093048Y-50330893D01*
X72746097Y-50330893D01*
X72622422Y-50234633D01*
X72622420Y-50234632D01*
X72622419Y-50234631D01*
X72403724Y-50116279D01*
X72403715Y-50116276D01*
X72168529Y-50035536D01*
X71923248Y-49994607D01*
X71674578Y-49994607D01*
X71429296Y-50035536D01*
X71194110Y-50116276D01*
X71194101Y-50116279D01*
X70975406Y-50234631D01*
X70779170Y-50387368D01*
X70610746Y-50570324D01*
X70474739Y-50778500D01*
X70374849Y-51006225D01*
X70313805Y-51247282D01*
X70313803Y-51247294D01*
X70293270Y-51495101D01*
X70293270Y-51495112D01*
X67400500Y-51495112D01*
X67400500Y-46898918D01*
X74889464Y-46898918D01*
X74909997Y-47146725D01*
X74909999Y-47146737D01*
X74971043Y-47387794D01*
X75070933Y-47615519D01*
X75206940Y-47823695D01*
X75206943Y-47823698D01*
X75375363Y-48006651D01*
X75571598Y-48159387D01*
X75790297Y-48277741D01*
X76025493Y-48358484D01*
X76270772Y-48399413D01*
X76519442Y-48399413D01*
X76764721Y-48358484D01*
X76999917Y-48277741D01*
X77218616Y-48159387D01*
X77414851Y-48006651D01*
X77583271Y-47823698D01*
X77719280Y-47615520D01*
X77819170Y-47387794D01*
X77880215Y-47146734D01*
X77900750Y-46898918D01*
X87953251Y-46898918D01*
X87973784Y-47146725D01*
X87973786Y-47146737D01*
X88034830Y-47387794D01*
X88134720Y-47615519D01*
X88270727Y-47823695D01*
X88270730Y-47823698D01*
X88439150Y-48006651D01*
X88635385Y-48159387D01*
X88854084Y-48277741D01*
X89089280Y-48358484D01*
X89334559Y-48399413D01*
X89583229Y-48399413D01*
X89828508Y-48358484D01*
X90063704Y-48277741D01*
X90282403Y-48159387D01*
X90478638Y-48006651D01*
X90647058Y-47823698D01*
X90783067Y-47615520D01*
X90882957Y-47387794D01*
X90944002Y-47146734D01*
X90964537Y-46898913D01*
X90944002Y-46651092D01*
X90882957Y-46410032D01*
X90865209Y-46369571D01*
X90783067Y-46182306D01*
X90647060Y-45974130D01*
X90625451Y-45950657D01*
X90478638Y-45791175D01*
X90282403Y-45638439D01*
X90282401Y-45638438D01*
X90282400Y-45638437D01*
X90063705Y-45520085D01*
X90063696Y-45520082D01*
X89828510Y-45439342D01*
X89583229Y-45398413D01*
X89334559Y-45398413D01*
X89089277Y-45439342D01*
X88854091Y-45520082D01*
X88854082Y-45520085D01*
X88635387Y-45638437D01*
X88439151Y-45791174D01*
X88270727Y-45974130D01*
X88134720Y-46182306D01*
X88034830Y-46410031D01*
X87973786Y-46651088D01*
X87973784Y-46651100D01*
X87953251Y-46898907D01*
X87953251Y-46898918D01*
X77900750Y-46898918D01*
X77900750Y-46898913D01*
X77880215Y-46651092D01*
X77819170Y-46410032D01*
X77801422Y-46369571D01*
X77719280Y-46182306D01*
X77583273Y-45974130D01*
X77561664Y-45950657D01*
X77414851Y-45791175D01*
X77218616Y-45638439D01*
X77218614Y-45638438D01*
X77218613Y-45638437D01*
X76999918Y-45520085D01*
X76999909Y-45520082D01*
X76764723Y-45439342D01*
X76519442Y-45398413D01*
X76270772Y-45398413D01*
X76025490Y-45439342D01*
X75790304Y-45520082D01*
X75790295Y-45520085D01*
X75571600Y-45638437D01*
X75375364Y-45791174D01*
X75206940Y-45974130D01*
X75070933Y-46182306D01*
X74971043Y-46410031D01*
X74909999Y-46651088D01*
X74909997Y-46651100D01*
X74889464Y-46898907D01*
X74889464Y-46898918D01*
X67400500Y-46898918D01*
X67400500Y-44910005D01*
X78194357Y-44910005D01*
X78214890Y-45157812D01*
X78214892Y-45157824D01*
X78275936Y-45398881D01*
X78375826Y-45626606D01*
X78511833Y-45834782D01*
X78511836Y-45834785D01*
X78680256Y-46017738D01*
X78876491Y-46170474D01*
X79095190Y-46288828D01*
X79330386Y-46369571D01*
X79575665Y-46410500D01*
X79824335Y-46410500D01*
X80069614Y-46369571D01*
X80304810Y-46288828D01*
X80523509Y-46170474D01*
X80719744Y-46017738D01*
X80888164Y-45834785D01*
X81024173Y-45626607D01*
X81124063Y-45398881D01*
X81185108Y-45157821D01*
X81205643Y-44910005D01*
X84694357Y-44910005D01*
X84714890Y-45157812D01*
X84714892Y-45157824D01*
X84775936Y-45398881D01*
X84875826Y-45626606D01*
X85011833Y-45834782D01*
X85011836Y-45834785D01*
X85180256Y-46017738D01*
X85376491Y-46170474D01*
X85595190Y-46288828D01*
X85830386Y-46369571D01*
X86075665Y-46410500D01*
X86324335Y-46410500D01*
X86569614Y-46369571D01*
X86804810Y-46288828D01*
X87023509Y-46170474D01*
X87219744Y-46017738D01*
X87388164Y-45834785D01*
X87524173Y-45626607D01*
X87624063Y-45398881D01*
X87685108Y-45157821D01*
X87705643Y-44910000D01*
X87685108Y-44662179D01*
X87624063Y-44421119D01*
X87524173Y-44193393D01*
X87524172Y-44193393D01*
X87388166Y-43985217D01*
X87366557Y-43961744D01*
X87219744Y-43802262D01*
X87023509Y-43649526D01*
X87023507Y-43649525D01*
X87023506Y-43649524D01*
X86804811Y-43531172D01*
X86804802Y-43531169D01*
X86569616Y-43450429D01*
X86324335Y-43409500D01*
X86075665Y-43409500D01*
X85830383Y-43450429D01*
X85595197Y-43531169D01*
X85595188Y-43531172D01*
X85376493Y-43649524D01*
X85180257Y-43802261D01*
X85011833Y-43985217D01*
X84875826Y-44193393D01*
X84775936Y-44421118D01*
X84714892Y-44662175D01*
X84714890Y-44662187D01*
X84694357Y-44909994D01*
X84694357Y-44910005D01*
X81205643Y-44910005D01*
X81205643Y-44910000D01*
X81185108Y-44662179D01*
X81124063Y-44421119D01*
X81024173Y-44193393D01*
X80888166Y-43985217D01*
X80866557Y-43961744D01*
X80719744Y-43802262D01*
X80523509Y-43649526D01*
X80523507Y-43649525D01*
X80523506Y-43649524D01*
X80304811Y-43531172D01*
X80304802Y-43531169D01*
X80069616Y-43450429D01*
X79824335Y-43409500D01*
X79575665Y-43409500D01*
X79330383Y-43450429D01*
X79095197Y-43531169D01*
X79095188Y-43531172D01*
X78876493Y-43649524D01*
X78680257Y-43802261D01*
X78511833Y-43985217D01*
X78375826Y-44193393D01*
X78275936Y-44421118D01*
X78214892Y-44662175D01*
X78214890Y-44662187D01*
X78194357Y-44909994D01*
X78194357Y-44910005D01*
X67400500Y-44910005D01*
X67400500Y-38699999D01*
X67695065Y-38699999D01*
X67714786Y-39026038D01*
X67773667Y-39347341D01*
X67870835Y-39659164D01*
X67870839Y-39659175D01*
X68004897Y-39957041D01*
X68004898Y-39957043D01*
X68173887Y-40236586D01*
X68321477Y-40424968D01*
X69360554Y-39385891D01*
X69421877Y-39352406D01*
X69491569Y-39357390D01*
X69547502Y-39399262D01*
X69549242Y-39401644D01*
X69564893Y-39423623D01*
X69564895Y-39423625D01*
X69711041Y-39562975D01*
X69745976Y-39623484D01*
X69742651Y-39693274D01*
X69713152Y-39740399D01*
X68675030Y-40778521D01*
X68675030Y-40778522D01*
X68863414Y-40926112D01*
X68863423Y-40926118D01*
X69142956Y-41095101D01*
X69142958Y-41095102D01*
X69440824Y-41229160D01*
X69440835Y-41229164D01*
X69752658Y-41326332D01*
X70073961Y-41385213D01*
X70399999Y-41404934D01*
X70726038Y-41385213D01*
X71047341Y-41326332D01*
X71359164Y-41229164D01*
X71359175Y-41229160D01*
X71657041Y-41095102D01*
X71657043Y-41095101D01*
X71936576Y-40926118D01*
X71936584Y-40926112D01*
X72124968Y-40778522D01*
X72124968Y-40778521D01*
X71084234Y-39737787D01*
X71050749Y-39676464D01*
X71055733Y-39606772D01*
X71095263Y-39552636D01*
X71162540Y-39499729D01*
X71256723Y-39391035D01*
X71315496Y-39353264D01*
X71385365Y-39353263D01*
X71438113Y-39384560D01*
X72478521Y-40424968D01*
X72478522Y-40424968D01*
X72490245Y-40410005D01*
X78194859Y-40410005D01*
X78215385Y-40657729D01*
X78215387Y-40657738D01*
X78276412Y-40898717D01*
X78376266Y-41126364D01*
X78476564Y-41279882D01*
X79051482Y-40704964D01*
X79112805Y-40671479D01*
X79182496Y-40676463D01*
X79238430Y-40718334D01*
X79241514Y-40723249D01*
X79241549Y-40723225D01*
X79246441Y-40730156D01*
X79349637Y-40840651D01*
X79349638Y-40840652D01*
X79384698Y-40861973D01*
X79431749Y-40913623D01*
X79443407Y-40982513D01*
X79415970Y-41046770D01*
X79407950Y-41055601D01*
X78829942Y-41633609D01*
X78876768Y-41670055D01*
X78876770Y-41670056D01*
X79095385Y-41788364D01*
X79095396Y-41788369D01*
X79330506Y-41869083D01*
X79575707Y-41910000D01*
X79824293Y-41910000D01*
X80069493Y-41869083D01*
X80304603Y-41788369D01*
X80304614Y-41788364D01*
X80523228Y-41670057D01*
X80523231Y-41670055D01*
X80570056Y-41633609D01*
X79993165Y-41056718D01*
X79959680Y-40995395D01*
X79964664Y-40925703D01*
X80002588Y-40872853D01*
X80105739Y-40788934D01*
X80156052Y-40717655D01*
X80210793Y-40674239D01*
X80280318Y-40667310D01*
X80342553Y-40699068D01*
X80345037Y-40701484D01*
X80923434Y-41279882D01*
X81023731Y-41126369D01*
X81123587Y-40898717D01*
X81184612Y-40657738D01*
X81184614Y-40657729D01*
X81205141Y-40410005D01*
X84694858Y-40410005D01*
X84715385Y-40657729D01*
X84715387Y-40657738D01*
X84776412Y-40898717D01*
X84876266Y-41126364D01*
X84976564Y-41279882D01*
X85551482Y-40704964D01*
X85612805Y-40671479D01*
X85682496Y-40676463D01*
X85738430Y-40718334D01*
X85741514Y-40723249D01*
X85741549Y-40723225D01*
X85746441Y-40730156D01*
X85849637Y-40840651D01*
X85849638Y-40840652D01*
X85884698Y-40861973D01*
X85931749Y-40913623D01*
X85943407Y-40982513D01*
X85915970Y-41046770D01*
X85907950Y-41055601D01*
X85329942Y-41633609D01*
X85376768Y-41670055D01*
X85376770Y-41670056D01*
X85595385Y-41788364D01*
X85595396Y-41788369D01*
X85830506Y-41869083D01*
X86075707Y-41910000D01*
X86324293Y-41910000D01*
X86569493Y-41869083D01*
X86804603Y-41788369D01*
X86804614Y-41788364D01*
X87023228Y-41670057D01*
X87023231Y-41670055D01*
X87070056Y-41633609D01*
X86493165Y-41056718D01*
X86459680Y-40995395D01*
X86464664Y-40925703D01*
X86502588Y-40872853D01*
X86605739Y-40788934D01*
X86656052Y-40717655D01*
X86710793Y-40674239D01*
X86780318Y-40667310D01*
X86842553Y-40699068D01*
X86845037Y-40701484D01*
X87423434Y-41279882D01*
X87523731Y-41126369D01*
X87623587Y-40898717D01*
X87684612Y-40657738D01*
X87684614Y-40657729D01*
X87705141Y-40410005D01*
X87705141Y-40409994D01*
X87684614Y-40162270D01*
X87684612Y-40162261D01*
X87623587Y-39921282D01*
X87523731Y-39693630D01*
X87423434Y-39540116D01*
X86848517Y-40115034D01*
X86787194Y-40148519D01*
X86717502Y-40143535D01*
X86661569Y-40101663D01*
X86658486Y-40096750D01*
X86658451Y-40096775D01*
X86653558Y-40089843D01*
X86598661Y-40031064D01*
X86550362Y-39979348D01*
X86515300Y-39958026D01*
X86468248Y-39906374D01*
X86456591Y-39837484D01*
X86484029Y-39773227D01*
X86492048Y-39764397D01*
X87070056Y-39186389D01*
X87023229Y-39149943D01*
X86804614Y-39031635D01*
X86804603Y-39031630D01*
X86569493Y-38950916D01*
X86324293Y-38910000D01*
X86075707Y-38910000D01*
X85830506Y-38950916D01*
X85595396Y-39031630D01*
X85595390Y-39031632D01*
X85376761Y-39149949D01*
X85329942Y-39186388D01*
X85329942Y-39186390D01*
X85906833Y-39763280D01*
X85940318Y-39824603D01*
X85935334Y-39894294D01*
X85897408Y-39947148D01*
X85794262Y-40031064D01*
X85794258Y-40031069D01*
X85743947Y-40102343D01*
X85689204Y-40145760D01*
X85619679Y-40152689D01*
X85557444Y-40120930D01*
X85554962Y-40118515D01*
X84976564Y-39540116D01*
X84876267Y-39693632D01*
X84776412Y-39921282D01*
X84715387Y-40162261D01*
X84715385Y-40162270D01*
X84694858Y-40409994D01*
X84694858Y-40410005D01*
X81205141Y-40410005D01*
X81205141Y-40409994D01*
X81184614Y-40162270D01*
X81184612Y-40162261D01*
X81123587Y-39921282D01*
X81023731Y-39693630D01*
X80923434Y-39540116D01*
X80348517Y-40115034D01*
X80287194Y-40148519D01*
X80217502Y-40143535D01*
X80161569Y-40101663D01*
X80158486Y-40096750D01*
X80158451Y-40096775D01*
X80153558Y-40089843D01*
X80098661Y-40031064D01*
X80050362Y-39979348D01*
X80015300Y-39958026D01*
X79968248Y-39906374D01*
X79956591Y-39837484D01*
X79984029Y-39773227D01*
X79992048Y-39764397D01*
X80570056Y-39186389D01*
X80523229Y-39149943D01*
X80304614Y-39031635D01*
X80304603Y-39031630D01*
X80069493Y-38950916D01*
X79824293Y-38910000D01*
X79575707Y-38910000D01*
X79330506Y-38950916D01*
X79095396Y-39031630D01*
X79095390Y-39031632D01*
X78876761Y-39149949D01*
X78829942Y-39186388D01*
X78829942Y-39186390D01*
X79406833Y-39763280D01*
X79440318Y-39824603D01*
X79435334Y-39894294D01*
X79397408Y-39947148D01*
X79294262Y-40031064D01*
X79294258Y-40031069D01*
X79243947Y-40102343D01*
X79189204Y-40145760D01*
X79119679Y-40152689D01*
X79057444Y-40120930D01*
X79054962Y-40118515D01*
X78476564Y-39540116D01*
X78376267Y-39693632D01*
X78276412Y-39921282D01*
X78215387Y-40162261D01*
X78215385Y-40162270D01*
X78194859Y-40409994D01*
X78194859Y-40410005D01*
X72490245Y-40410005D01*
X72626112Y-40236584D01*
X72626118Y-40236576D01*
X72795101Y-39957043D01*
X72795102Y-39957041D01*
X72929160Y-39659175D01*
X72929164Y-39659164D01*
X73026332Y-39347341D01*
X73085213Y-39026038D01*
X73104934Y-38699999D01*
X92695065Y-38699999D01*
X92714786Y-39026038D01*
X92773667Y-39347341D01*
X92870835Y-39659164D01*
X92870839Y-39659175D01*
X93004897Y-39957041D01*
X93004898Y-39957043D01*
X93173887Y-40236586D01*
X93321477Y-40424968D01*
X94360554Y-39385891D01*
X94421877Y-39352406D01*
X94491569Y-39357390D01*
X94547502Y-39399262D01*
X94549242Y-39401644D01*
X94564893Y-39423623D01*
X94564895Y-39423625D01*
X94711041Y-39562975D01*
X94745976Y-39623484D01*
X94742651Y-39693274D01*
X94713152Y-39740399D01*
X93675030Y-40778521D01*
X93675030Y-40778522D01*
X93863414Y-40926112D01*
X93863423Y-40926118D01*
X94142956Y-41095101D01*
X94142958Y-41095102D01*
X94440824Y-41229160D01*
X94440835Y-41229164D01*
X94752658Y-41326332D01*
X95073961Y-41385213D01*
X95400000Y-41404934D01*
X95726038Y-41385213D01*
X96047341Y-41326332D01*
X96359164Y-41229164D01*
X96359175Y-41229160D01*
X96657041Y-41095102D01*
X96657043Y-41095101D01*
X96936576Y-40926118D01*
X96936584Y-40926112D01*
X97124968Y-40778522D01*
X97124968Y-40778521D01*
X96084234Y-39737787D01*
X96050749Y-39676464D01*
X96055733Y-39606772D01*
X96095263Y-39552636D01*
X96162540Y-39499729D01*
X96256723Y-39391035D01*
X96315496Y-39353264D01*
X96385365Y-39353263D01*
X96438113Y-39384560D01*
X97478521Y-40424968D01*
X97478522Y-40424968D01*
X97626112Y-40236584D01*
X97626118Y-40236576D01*
X97795101Y-39957043D01*
X97795102Y-39957041D01*
X97929160Y-39659175D01*
X97929164Y-39659164D01*
X98026332Y-39347341D01*
X98085213Y-39026038D01*
X98104934Y-38699999D01*
X98085213Y-38373961D01*
X98026332Y-38052658D01*
X97929164Y-37740835D01*
X97929160Y-37740824D01*
X97795102Y-37442958D01*
X97795101Y-37442956D01*
X97626118Y-37163423D01*
X97626112Y-37163414D01*
X97478521Y-36975030D01*
X96439444Y-38014107D01*
X96378121Y-38047592D01*
X96308429Y-38042608D01*
X96252496Y-38000736D01*
X96250755Y-37998352D01*
X96235108Y-37976378D01*
X96235104Y-37976374D01*
X96088957Y-37837023D01*
X96054022Y-37776514D01*
X96057347Y-37706724D01*
X96086846Y-37659599D01*
X97124968Y-36621477D01*
X97124968Y-36621476D01*
X96936586Y-36473887D01*
X96657043Y-36304898D01*
X96657041Y-36304897D01*
X96359175Y-36170839D01*
X96359164Y-36170835D01*
X96047341Y-36073667D01*
X95726038Y-36014786D01*
X95400000Y-35995065D01*
X95073961Y-36014786D01*
X94752658Y-36073667D01*
X94440835Y-36170835D01*
X94440824Y-36170839D01*
X94142958Y-36304897D01*
X94142956Y-36304898D01*
X93863423Y-36473881D01*
X93675030Y-36621476D01*
X93675030Y-36621477D01*
X94715765Y-37662212D01*
X94749250Y-37723535D01*
X94744266Y-37793227D01*
X94704737Y-37847363D01*
X94637458Y-37900272D01*
X94637453Y-37900277D01*
X94543278Y-38008960D01*
X94484500Y-38046734D01*
X94414630Y-38046734D01*
X94361885Y-38015438D01*
X93321477Y-36975030D01*
X93321476Y-36975030D01*
X93173881Y-37163423D01*
X93004898Y-37442956D01*
X93004897Y-37442958D01*
X92870839Y-37740824D01*
X92870835Y-37740835D01*
X92773667Y-38052658D01*
X92714786Y-38373961D01*
X92695065Y-38699999D01*
X73104934Y-38699999D01*
X73085213Y-38373961D01*
X73026332Y-38052658D01*
X72929164Y-37740835D01*
X72929160Y-37740824D01*
X72795102Y-37442958D01*
X72795101Y-37442956D01*
X72626118Y-37163423D01*
X72626112Y-37163414D01*
X72478521Y-36975030D01*
X71439444Y-38014107D01*
X71378121Y-38047592D01*
X71308429Y-38042608D01*
X71252496Y-38000736D01*
X71250755Y-37998352D01*
X71235108Y-37976378D01*
X71235104Y-37976374D01*
X71088957Y-37837023D01*
X71054022Y-37776514D01*
X71057347Y-37706724D01*
X71086846Y-37659599D01*
X72124968Y-36621477D01*
X72124968Y-36621476D01*
X71936586Y-36473887D01*
X71657043Y-36304898D01*
X71657041Y-36304897D01*
X71359175Y-36170839D01*
X71359164Y-36170835D01*
X71047341Y-36073667D01*
X70726038Y-36014786D01*
X70400000Y-35995065D01*
X70073961Y-36014786D01*
X69752658Y-36073667D01*
X69440835Y-36170835D01*
X69440824Y-36170839D01*
X69142958Y-36304897D01*
X69142956Y-36304898D01*
X68863423Y-36473881D01*
X68675030Y-36621476D01*
X68675030Y-36621477D01*
X69715765Y-37662212D01*
X69749250Y-37723535D01*
X69744266Y-37793227D01*
X69704737Y-37847363D01*
X69637458Y-37900272D01*
X69637453Y-37900277D01*
X69543278Y-38008960D01*
X69484500Y-38046734D01*
X69414630Y-38046734D01*
X69361885Y-38015438D01*
X68321477Y-36975030D01*
X68321476Y-36975030D01*
X68173881Y-37163423D01*
X68004898Y-37442956D01*
X68004897Y-37442958D01*
X67870839Y-37740824D01*
X67870835Y-37740835D01*
X67773667Y-38052658D01*
X67714786Y-38373961D01*
X67695065Y-38699999D01*
X67400500Y-38699999D01*
X67400500Y-35824500D01*
X67420185Y-35757461D01*
X67472989Y-35711706D01*
X67524500Y-35700500D01*
X98275500Y-35700500D01*
X98342539Y-35720185D01*
G37*
%TD.AperFunction*%
%TD*%
M02*
