M48
; DRILL file {KiCad 7.0.7} date 2023 September 26, Tuesday 19:09:15
; FORMAT={-:-/ absolute / inch / decimal}
; #@! TF.CreationDate,2023-09-26T19:09:15+01:00
; #@! TF.GenerationSoftware,Kicad,Pcbnew,7.0.7
; #@! TF.FileFunction,Plated,1,2,PTH
FMAT,2
INCH
; #@! TA.AperFunction,Plated,PTH,ComponentDrill
T1C0.0394
; #@! TA.AperFunction,Plated,PTH,ComponentDrill
T2C0.0433
; #@! TA.AperFunction,Plated,PTH,ComponentDrill
T3C0.0866
%
G90
G05
T1
X3.0698Y-2.6195
X3.1698Y-2.6195
X3.2698Y-2.6195
X3.3698Y-2.6195
X3.4698Y-2.6195
T2
X2.8267Y-2.0274
X2.952Y-2.1526
X3.0077Y-1.8464
X3.133Y-1.9717
X3.1339Y-2.1824
X3.1339Y-2.3595
X3.1378Y-1.5909
X3.1378Y-1.7681
X3.3898Y-2.1824
X3.3898Y-2.3595
X3.3937Y-1.5909
X3.3937Y-1.7681
X3.3967Y-1.9717
X3.522Y-1.8464
X3.5777Y-2.1526
X3.703Y-2.0274
T3
X2.7717Y-1.5236
X2.7717Y-2.8031
X3.7559Y-1.5236
X3.7559Y-2.8031
T0
M30
