%TF.GenerationSoftware,KiCad,Pcbnew,7.0.7*%
%TF.CreationDate,2023-09-26T19:09:09+01:00*%
%TF.ProjectId,dpad,64706164-2e6b-4696-9361-645f70636258,1*%
%TF.SameCoordinates,Original*%
%TF.FileFunction,Copper,L1,Top*%
%TF.FilePolarity,Positive*%
%FSLAX46Y46*%
G04 Gerber Fmt 4.6, Leading zero omitted, Abs format (unit mm)*
G04 Created by KiCad (PCBNEW 7.0.7) date 2023-09-26 19:09:09*
%MOMM*%
%LPD*%
G01*
G04 APERTURE LIST*
%TA.AperFunction,ComponentPad*%
%ADD10C,4.400000*%
%TD*%
%TA.AperFunction,ComponentPad*%
%ADD11C,2.000000*%
%TD*%
%TA.AperFunction,ComponentPad*%
%ADD12R,1.700000X1.700000*%
%TD*%
%TA.AperFunction,ComponentPad*%
%ADD13O,1.700000X1.700000*%
%TD*%
%TA.AperFunction,Conductor*%
%ADD14C,0.250000*%
%TD*%
G04 APERTURE END LIST*
D10*
%TO.P,H4,1,1*%
%TO.N,GND*%
X95400000Y-71200000D03*
%TD*%
%TO.P,H3,1,1*%
%TO.N,GND*%
X95400000Y-38700000D03*
%TD*%
%TO.P,H2,1,1*%
%TO.N,GND*%
X70400000Y-71200000D03*
%TD*%
%TO.P,H1,1,1*%
%TO.N,GND*%
X70400000Y-38700000D03*
%TD*%
D11*
%TO.P,SW2,1,1*%
%TO.N,D2*%
X86102000Y-59932000D03*
X79602000Y-59932000D03*
%TO.P,SW2,2,2*%
%TO.N,GND*%
X86102000Y-55432000D03*
X79602000Y-55432000D03*
%TD*%
%TO.P,SW4,1,1*%
%TO.N,D4*%
X89458894Y-46898913D03*
X94055088Y-51495107D03*
%TO.P,SW4,2,2*%
%TO.N,GND*%
X86276913Y-50080894D03*
X90873108Y-54677088D03*
%TD*%
%TO.P,SW3,1,1*%
%TO.N,D3*%
X86200000Y-44910000D03*
X79700000Y-44910000D03*
%TO.P,SW3,2,2*%
%TO.N,GND*%
X86200000Y-40410000D03*
X79700000Y-40410000D03*
%TD*%
%TO.P,SW1,1,1*%
%TO.N,D1*%
X71798913Y-51495107D03*
X76395107Y-46898913D03*
%TO.P,SW1,2,2*%
%TO.N,GND*%
X74980894Y-54677088D03*
X79577088Y-50080893D03*
%TD*%
D12*
%TO.P,J1,1,Pin_1*%
%TO.N,D1*%
X77974000Y-66536000D03*
D13*
%TO.P,J1,2,Pin_2*%
%TO.N,D2*%
X80514000Y-66536000D03*
%TO.P,J1,3,Pin_3*%
%TO.N,D3*%
X83054000Y-66536000D03*
%TO.P,J1,4,Pin_4*%
%TO.N,D4*%
X85594000Y-66536000D03*
%TO.P,J1,5,Pin_5*%
%TO.N,GND*%
X88134000Y-66536000D03*
%TD*%
D14*
%TO.N,D3*%
X83054000Y-66536000D02*
X83054000Y-68346000D01*
X83054000Y-68346000D02*
X82200000Y-69200000D01*
X82200000Y-69200000D02*
X77200000Y-69200000D01*
X69700000Y-61700000D02*
X69700000Y-49200000D01*
X77200000Y-69200000D02*
X69700000Y-61700000D01*
X69700000Y-49200000D02*
X73990000Y-44910000D01*
X73990000Y-44910000D02*
X79700000Y-44910000D01*
%TO.N,D2*%
X80514000Y-66536000D02*
X80514000Y-63742000D01*
X79602000Y-62830000D02*
X79602000Y-59932000D01*
X80514000Y-63742000D02*
X79602000Y-62830000D01*
X79602000Y-59932000D02*
X86102000Y-59932000D01*
%TO.N,D3*%
X79700000Y-44910000D02*
X86200000Y-44910000D01*
%TO.N,D4*%
X94055088Y-58074912D02*
X94055088Y-51495107D01*
X94055088Y-51495107D02*
X89458894Y-46898913D01*
X85594000Y-66536000D02*
X94055088Y-58074912D01*
%TO.N,D1*%
X71798913Y-51495107D02*
X76395107Y-46898913D01*
X71798913Y-60360913D02*
X71798913Y-51495107D01*
X77974000Y-66536000D02*
X71798913Y-60360913D01*
%TD*%
M02*
