%TF.GenerationSoftware,KiCad,Pcbnew,7.0.7*%
%TF.CreationDate,2023-09-26T19:09:10+01:00*%
%TF.ProjectId,dpad,64706164-2e6b-4696-9361-645f70636258,1*%
%TF.SameCoordinates,Original*%
%TF.FileFunction,Legend,Bot*%
%TF.FilePolarity,Positive*%
%FSLAX46Y46*%
G04 Gerber Fmt 4.6, Leading zero omitted, Abs format (unit mm)*
G04 Created by KiCad (PCBNEW 7.0.7) date 2023-09-26 19:09:10*
%MOMM*%
%LPD*%
G01*
G04 APERTURE LIST*
%ADD10C,0.150000*%
%ADD11C,0.120000*%
G04 APERTURE END LIST*
D10*
X81022200Y-61989160D02*
X81069819Y-62132017D01*
X81069819Y-62132017D02*
X81069819Y-62370112D01*
X81069819Y-62370112D02*
X81022200Y-62465350D01*
X81022200Y-62465350D02*
X80974580Y-62512969D01*
X80974580Y-62512969D02*
X80879342Y-62560588D01*
X80879342Y-62560588D02*
X80784104Y-62560588D01*
X80784104Y-62560588D02*
X80688866Y-62512969D01*
X80688866Y-62512969D02*
X80641247Y-62465350D01*
X80641247Y-62465350D02*
X80593628Y-62370112D01*
X80593628Y-62370112D02*
X80546009Y-62179636D01*
X80546009Y-62179636D02*
X80498390Y-62084398D01*
X80498390Y-62084398D02*
X80450771Y-62036779D01*
X80450771Y-62036779D02*
X80355533Y-61989160D01*
X80355533Y-61989160D02*
X80260295Y-61989160D01*
X80260295Y-61989160D02*
X80165057Y-62036779D01*
X80165057Y-62036779D02*
X80117438Y-62084398D01*
X80117438Y-62084398D02*
X80069819Y-62179636D01*
X80069819Y-62179636D02*
X80069819Y-62417731D01*
X80069819Y-62417731D02*
X80117438Y-62560588D01*
X80069819Y-62893922D02*
X81069819Y-63132017D01*
X81069819Y-63132017D02*
X80355533Y-63322493D01*
X80355533Y-63322493D02*
X81069819Y-63512969D01*
X81069819Y-63512969D02*
X80069819Y-63751065D01*
X80165057Y-64084398D02*
X80117438Y-64132017D01*
X80117438Y-64132017D02*
X80069819Y-64227255D01*
X80069819Y-64227255D02*
X80069819Y-64465350D01*
X80069819Y-64465350D02*
X80117438Y-64560588D01*
X80117438Y-64560588D02*
X80165057Y-64608207D01*
X80165057Y-64608207D02*
X80260295Y-64655826D01*
X80260295Y-64655826D02*
X80355533Y-64655826D01*
X80355533Y-64655826D02*
X80498390Y-64608207D01*
X80498390Y-64608207D02*
X81069819Y-64036779D01*
X81069819Y-64036779D02*
X81069819Y-64655826D01*
X78022200Y-61989160D02*
X78069819Y-62132017D01*
X78069819Y-62132017D02*
X78069819Y-62370112D01*
X78069819Y-62370112D02*
X78022200Y-62465350D01*
X78022200Y-62465350D02*
X77974580Y-62512969D01*
X77974580Y-62512969D02*
X77879342Y-62560588D01*
X77879342Y-62560588D02*
X77784104Y-62560588D01*
X77784104Y-62560588D02*
X77688866Y-62512969D01*
X77688866Y-62512969D02*
X77641247Y-62465350D01*
X77641247Y-62465350D02*
X77593628Y-62370112D01*
X77593628Y-62370112D02*
X77546009Y-62179636D01*
X77546009Y-62179636D02*
X77498390Y-62084398D01*
X77498390Y-62084398D02*
X77450771Y-62036779D01*
X77450771Y-62036779D02*
X77355533Y-61989160D01*
X77355533Y-61989160D02*
X77260295Y-61989160D01*
X77260295Y-61989160D02*
X77165057Y-62036779D01*
X77165057Y-62036779D02*
X77117438Y-62084398D01*
X77117438Y-62084398D02*
X77069819Y-62179636D01*
X77069819Y-62179636D02*
X77069819Y-62417731D01*
X77069819Y-62417731D02*
X77117438Y-62560588D01*
X77069819Y-62893922D02*
X78069819Y-63132017D01*
X78069819Y-63132017D02*
X77355533Y-63322493D01*
X77355533Y-63322493D02*
X78069819Y-63512969D01*
X78069819Y-63512969D02*
X77069819Y-63751065D01*
X78069819Y-64655826D02*
X78069819Y-64084398D01*
X78069819Y-64370112D02*
X77069819Y-64370112D01*
X77069819Y-64370112D02*
X77212676Y-64274874D01*
X77212676Y-64274874D02*
X77307914Y-64179636D01*
X77307914Y-64179636D02*
X77355533Y-64084398D01*
X92352381Y-70064104D02*
X91876191Y-70064104D01*
X92447619Y-70349819D02*
X92114286Y-69349819D01*
X92114286Y-69349819D02*
X91780953Y-70349819D01*
X90971429Y-70349819D02*
X91447619Y-70349819D01*
X91447619Y-70349819D02*
X91447619Y-69349819D01*
X90780952Y-69349819D02*
X90209524Y-69349819D01*
X90495238Y-70349819D02*
X90495238Y-69349819D01*
X89876190Y-70254580D02*
X89828571Y-70302200D01*
X89828571Y-70302200D02*
X89876190Y-70349819D01*
X89876190Y-70349819D02*
X89923809Y-70302200D01*
X89923809Y-70302200D02*
X89876190Y-70254580D01*
X89876190Y-70254580D02*
X89876190Y-70349819D01*
X88828572Y-70254580D02*
X88876191Y-70302200D01*
X88876191Y-70302200D02*
X89019048Y-70349819D01*
X89019048Y-70349819D02*
X89114286Y-70349819D01*
X89114286Y-70349819D02*
X89257143Y-70302200D01*
X89257143Y-70302200D02*
X89352381Y-70206961D01*
X89352381Y-70206961D02*
X89400000Y-70111723D01*
X89400000Y-70111723D02*
X89447619Y-69921247D01*
X89447619Y-69921247D02*
X89447619Y-69778390D01*
X89447619Y-69778390D02*
X89400000Y-69587914D01*
X89400000Y-69587914D02*
X89352381Y-69492676D01*
X89352381Y-69492676D02*
X89257143Y-69397438D01*
X89257143Y-69397438D02*
X89114286Y-69349819D01*
X89114286Y-69349819D02*
X89019048Y-69349819D01*
X89019048Y-69349819D02*
X88876191Y-69397438D01*
X88876191Y-69397438D02*
X88828572Y-69445057D01*
X88542857Y-69349819D02*
X87971429Y-69349819D01*
X88257143Y-70349819D02*
X88257143Y-69349819D01*
X87066667Y-70349819D02*
X87400000Y-69873628D01*
X87638095Y-70349819D02*
X87638095Y-69349819D01*
X87638095Y-69349819D02*
X87257143Y-69349819D01*
X87257143Y-69349819D02*
X87161905Y-69397438D01*
X87161905Y-69397438D02*
X87114286Y-69445057D01*
X87114286Y-69445057D02*
X87066667Y-69540295D01*
X87066667Y-69540295D02*
X87066667Y-69683152D01*
X87066667Y-69683152D02*
X87114286Y-69778390D01*
X87114286Y-69778390D02*
X87161905Y-69826009D01*
X87161905Y-69826009D02*
X87257143Y-69873628D01*
X87257143Y-69873628D02*
X87638095Y-69873628D01*
X86161905Y-70349819D02*
X86638095Y-70349819D01*
X86638095Y-70349819D02*
X86638095Y-69349819D01*
X85828571Y-70254580D02*
X85780952Y-70302200D01*
X85780952Y-70302200D02*
X85828571Y-70349819D01*
X85828571Y-70349819D02*
X85876190Y-70302200D01*
X85876190Y-70302200D02*
X85828571Y-70254580D01*
X85828571Y-70254580D02*
X85828571Y-70349819D01*
X84828572Y-69397438D02*
X84923810Y-69349819D01*
X84923810Y-69349819D02*
X85066667Y-69349819D01*
X85066667Y-69349819D02*
X85209524Y-69397438D01*
X85209524Y-69397438D02*
X85304762Y-69492676D01*
X85304762Y-69492676D02*
X85352381Y-69587914D01*
X85352381Y-69587914D02*
X85400000Y-69778390D01*
X85400000Y-69778390D02*
X85400000Y-69921247D01*
X85400000Y-69921247D02*
X85352381Y-70111723D01*
X85352381Y-70111723D02*
X85304762Y-70206961D01*
X85304762Y-70206961D02*
X85209524Y-70302200D01*
X85209524Y-70302200D02*
X85066667Y-70349819D01*
X85066667Y-70349819D02*
X84971429Y-70349819D01*
X84971429Y-70349819D02*
X84828572Y-70302200D01*
X84828572Y-70302200D02*
X84780953Y-70254580D01*
X84780953Y-70254580D02*
X84780953Y-69921247D01*
X84780953Y-69921247D02*
X84971429Y-69921247D01*
X83923810Y-70349819D02*
X83923810Y-69826009D01*
X83923810Y-69826009D02*
X83971429Y-69730771D01*
X83971429Y-69730771D02*
X84066667Y-69683152D01*
X84066667Y-69683152D02*
X84257143Y-69683152D01*
X84257143Y-69683152D02*
X84352381Y-69730771D01*
X83923810Y-70302200D02*
X84019048Y-70349819D01*
X84019048Y-70349819D02*
X84257143Y-70349819D01*
X84257143Y-70349819D02*
X84352381Y-70302200D01*
X84352381Y-70302200D02*
X84400000Y-70206961D01*
X84400000Y-70206961D02*
X84400000Y-70111723D01*
X84400000Y-70111723D02*
X84352381Y-70016485D01*
X84352381Y-70016485D02*
X84257143Y-69968866D01*
X84257143Y-69968866D02*
X84019048Y-69968866D01*
X84019048Y-69968866D02*
X83923810Y-69921247D01*
X83447619Y-70349819D02*
X83447619Y-69683152D01*
X83447619Y-69778390D02*
X83400000Y-69730771D01*
X83400000Y-69730771D02*
X83304762Y-69683152D01*
X83304762Y-69683152D02*
X83161905Y-69683152D01*
X83161905Y-69683152D02*
X83066667Y-69730771D01*
X83066667Y-69730771D02*
X83019048Y-69826009D01*
X83019048Y-69826009D02*
X83019048Y-70349819D01*
X83019048Y-69826009D02*
X82971429Y-69730771D01*
X82971429Y-69730771D02*
X82876191Y-69683152D01*
X82876191Y-69683152D02*
X82733334Y-69683152D01*
X82733334Y-69683152D02*
X82638095Y-69730771D01*
X82638095Y-69730771D02*
X82590476Y-69826009D01*
X82590476Y-69826009D02*
X82590476Y-70349819D01*
X81733334Y-70302200D02*
X81828572Y-70349819D01*
X81828572Y-70349819D02*
X82019048Y-70349819D01*
X82019048Y-70349819D02*
X82114286Y-70302200D01*
X82114286Y-70302200D02*
X82161905Y-70206961D01*
X82161905Y-70206961D02*
X82161905Y-69826009D01*
X82161905Y-69826009D02*
X82114286Y-69730771D01*
X82114286Y-69730771D02*
X82019048Y-69683152D01*
X82019048Y-69683152D02*
X81828572Y-69683152D01*
X81828572Y-69683152D02*
X81733334Y-69730771D01*
X81733334Y-69730771D02*
X81685715Y-69826009D01*
X81685715Y-69826009D02*
X81685715Y-69921247D01*
X81685715Y-69921247D02*
X82161905Y-70016485D01*
X80685715Y-70254580D02*
X80733334Y-70302200D01*
X80733334Y-70302200D02*
X80876191Y-70349819D01*
X80876191Y-70349819D02*
X80971429Y-70349819D01*
X80971429Y-70349819D02*
X81114286Y-70302200D01*
X81114286Y-70302200D02*
X81209524Y-70206961D01*
X81209524Y-70206961D02*
X81257143Y-70111723D01*
X81257143Y-70111723D02*
X81304762Y-69921247D01*
X81304762Y-69921247D02*
X81304762Y-69778390D01*
X81304762Y-69778390D02*
X81257143Y-69587914D01*
X81257143Y-69587914D02*
X81209524Y-69492676D01*
X81209524Y-69492676D02*
X81114286Y-69397438D01*
X81114286Y-69397438D02*
X80971429Y-69349819D01*
X80971429Y-69349819D02*
X80876191Y-69349819D01*
X80876191Y-69349819D02*
X80733334Y-69397438D01*
X80733334Y-69397438D02*
X80685715Y-69445057D01*
X80257143Y-70349819D02*
X80257143Y-69683152D01*
X80257143Y-69873628D02*
X80209524Y-69778390D01*
X80209524Y-69778390D02*
X80161905Y-69730771D01*
X80161905Y-69730771D02*
X80066667Y-69683152D01*
X80066667Y-69683152D02*
X79971429Y-69683152D01*
X79209524Y-70349819D02*
X79209524Y-69826009D01*
X79209524Y-69826009D02*
X79257143Y-69730771D01*
X79257143Y-69730771D02*
X79352381Y-69683152D01*
X79352381Y-69683152D02*
X79542857Y-69683152D01*
X79542857Y-69683152D02*
X79638095Y-69730771D01*
X79209524Y-70302200D02*
X79304762Y-70349819D01*
X79304762Y-70349819D02*
X79542857Y-70349819D01*
X79542857Y-70349819D02*
X79638095Y-70302200D01*
X79638095Y-70302200D02*
X79685714Y-70206961D01*
X79685714Y-70206961D02*
X79685714Y-70111723D01*
X79685714Y-70111723D02*
X79638095Y-70016485D01*
X79638095Y-70016485D02*
X79542857Y-69968866D01*
X79542857Y-69968866D02*
X79304762Y-69968866D01*
X79304762Y-69968866D02*
X79209524Y-69921247D01*
X78876190Y-69683152D02*
X78495238Y-69683152D01*
X78733333Y-70349819D02*
X78733333Y-69492676D01*
X78733333Y-69492676D02*
X78685714Y-69397438D01*
X78685714Y-69397438D02*
X78590476Y-69349819D01*
X78590476Y-69349819D02*
X78495238Y-69349819D01*
X78304761Y-69683152D02*
X77923809Y-69683152D01*
X78161904Y-69349819D02*
X78161904Y-70206961D01*
X78161904Y-70206961D02*
X78114285Y-70302200D01*
X78114285Y-70302200D02*
X78019047Y-70349819D01*
X78019047Y-70349819D02*
X77923809Y-70349819D01*
X76876189Y-69445057D02*
X76828570Y-69397438D01*
X76828570Y-69397438D02*
X76733332Y-69349819D01*
X76733332Y-69349819D02*
X76495237Y-69349819D01*
X76495237Y-69349819D02*
X76399999Y-69397438D01*
X76399999Y-69397438D02*
X76352380Y-69445057D01*
X76352380Y-69445057D02*
X76304761Y-69540295D01*
X76304761Y-69540295D02*
X76304761Y-69635533D01*
X76304761Y-69635533D02*
X76352380Y-69778390D01*
X76352380Y-69778390D02*
X76923808Y-70349819D01*
X76923808Y-70349819D02*
X76304761Y-70349819D01*
X75685713Y-69349819D02*
X75590475Y-69349819D01*
X75590475Y-69349819D02*
X75495237Y-69397438D01*
X75495237Y-69397438D02*
X75447618Y-69445057D01*
X75447618Y-69445057D02*
X75399999Y-69540295D01*
X75399999Y-69540295D02*
X75352380Y-69730771D01*
X75352380Y-69730771D02*
X75352380Y-69968866D01*
X75352380Y-69968866D02*
X75399999Y-70159342D01*
X75399999Y-70159342D02*
X75447618Y-70254580D01*
X75447618Y-70254580D02*
X75495237Y-70302200D01*
X75495237Y-70302200D02*
X75590475Y-70349819D01*
X75590475Y-70349819D02*
X75685713Y-70349819D01*
X75685713Y-70349819D02*
X75780951Y-70302200D01*
X75780951Y-70302200D02*
X75828570Y-70254580D01*
X75828570Y-70254580D02*
X75876189Y-70159342D01*
X75876189Y-70159342D02*
X75923808Y-69968866D01*
X75923808Y-69968866D02*
X75923808Y-69730771D01*
X75923808Y-69730771D02*
X75876189Y-69540295D01*
X75876189Y-69540295D02*
X75828570Y-69445057D01*
X75828570Y-69445057D02*
X75780951Y-69397438D01*
X75780951Y-69397438D02*
X75685713Y-69349819D01*
X74971427Y-69445057D02*
X74923808Y-69397438D01*
X74923808Y-69397438D02*
X74828570Y-69349819D01*
X74828570Y-69349819D02*
X74590475Y-69349819D01*
X74590475Y-69349819D02*
X74495237Y-69397438D01*
X74495237Y-69397438D02*
X74447618Y-69445057D01*
X74447618Y-69445057D02*
X74399999Y-69540295D01*
X74399999Y-69540295D02*
X74399999Y-69635533D01*
X74399999Y-69635533D02*
X74447618Y-69778390D01*
X74447618Y-69778390D02*
X75019046Y-70349819D01*
X75019046Y-70349819D02*
X74399999Y-70349819D01*
X74066665Y-69349819D02*
X73447618Y-69349819D01*
X73447618Y-69349819D02*
X73780951Y-69730771D01*
X73780951Y-69730771D02*
X73638094Y-69730771D01*
X73638094Y-69730771D02*
X73542856Y-69778390D01*
X73542856Y-69778390D02*
X73495237Y-69826009D01*
X73495237Y-69826009D02*
X73447618Y-69921247D01*
X73447618Y-69921247D02*
X73447618Y-70159342D01*
X73447618Y-70159342D02*
X73495237Y-70254580D01*
X73495237Y-70254580D02*
X73542856Y-70302200D01*
X73542856Y-70302200D02*
X73638094Y-70349819D01*
X73638094Y-70349819D02*
X73923808Y-70349819D01*
X73923808Y-70349819D02*
X74019046Y-70302200D01*
X74019046Y-70302200D02*
X74066665Y-70254580D01*
X87757142Y-71055057D02*
X87709523Y-71007438D01*
X87709523Y-71007438D02*
X87614285Y-70959819D01*
X87614285Y-70959819D02*
X87376190Y-70959819D01*
X87376190Y-70959819D02*
X87280952Y-71007438D01*
X87280952Y-71007438D02*
X87233333Y-71055057D01*
X87233333Y-71055057D02*
X87185714Y-71150295D01*
X87185714Y-71150295D02*
X87185714Y-71245533D01*
X87185714Y-71245533D02*
X87233333Y-71388390D01*
X87233333Y-71388390D02*
X87804761Y-71959819D01*
X87804761Y-71959819D02*
X87185714Y-71959819D01*
X86566666Y-70959819D02*
X86471428Y-70959819D01*
X86471428Y-70959819D02*
X86376190Y-71007438D01*
X86376190Y-71007438D02*
X86328571Y-71055057D01*
X86328571Y-71055057D02*
X86280952Y-71150295D01*
X86280952Y-71150295D02*
X86233333Y-71340771D01*
X86233333Y-71340771D02*
X86233333Y-71578866D01*
X86233333Y-71578866D02*
X86280952Y-71769342D01*
X86280952Y-71769342D02*
X86328571Y-71864580D01*
X86328571Y-71864580D02*
X86376190Y-71912200D01*
X86376190Y-71912200D02*
X86471428Y-71959819D01*
X86471428Y-71959819D02*
X86566666Y-71959819D01*
X86566666Y-71959819D02*
X86661904Y-71912200D01*
X86661904Y-71912200D02*
X86709523Y-71864580D01*
X86709523Y-71864580D02*
X86757142Y-71769342D01*
X86757142Y-71769342D02*
X86804761Y-71578866D01*
X86804761Y-71578866D02*
X86804761Y-71340771D01*
X86804761Y-71340771D02*
X86757142Y-71150295D01*
X86757142Y-71150295D02*
X86709523Y-71055057D01*
X86709523Y-71055057D02*
X86661904Y-71007438D01*
X86661904Y-71007438D02*
X86566666Y-70959819D01*
X85852380Y-71055057D02*
X85804761Y-71007438D01*
X85804761Y-71007438D02*
X85709523Y-70959819D01*
X85709523Y-70959819D02*
X85471428Y-70959819D01*
X85471428Y-70959819D02*
X85376190Y-71007438D01*
X85376190Y-71007438D02*
X85328571Y-71055057D01*
X85328571Y-71055057D02*
X85280952Y-71150295D01*
X85280952Y-71150295D02*
X85280952Y-71245533D01*
X85280952Y-71245533D02*
X85328571Y-71388390D01*
X85328571Y-71388390D02*
X85899999Y-71959819D01*
X85899999Y-71959819D02*
X85280952Y-71959819D01*
X84947618Y-70959819D02*
X84328571Y-70959819D01*
X84328571Y-70959819D02*
X84661904Y-71340771D01*
X84661904Y-71340771D02*
X84519047Y-71340771D01*
X84519047Y-71340771D02*
X84423809Y-71388390D01*
X84423809Y-71388390D02*
X84376190Y-71436009D01*
X84376190Y-71436009D02*
X84328571Y-71531247D01*
X84328571Y-71531247D02*
X84328571Y-71769342D01*
X84328571Y-71769342D02*
X84376190Y-71864580D01*
X84376190Y-71864580D02*
X84423809Y-71912200D01*
X84423809Y-71912200D02*
X84519047Y-71959819D01*
X84519047Y-71959819D02*
X84804761Y-71959819D01*
X84804761Y-71959819D02*
X84899999Y-71912200D01*
X84899999Y-71912200D02*
X84947618Y-71864580D01*
X83899999Y-71578866D02*
X83138095Y-71578866D01*
X82471428Y-70959819D02*
X82376190Y-70959819D01*
X82376190Y-70959819D02*
X82280952Y-71007438D01*
X82280952Y-71007438D02*
X82233333Y-71055057D01*
X82233333Y-71055057D02*
X82185714Y-71150295D01*
X82185714Y-71150295D02*
X82138095Y-71340771D01*
X82138095Y-71340771D02*
X82138095Y-71578866D01*
X82138095Y-71578866D02*
X82185714Y-71769342D01*
X82185714Y-71769342D02*
X82233333Y-71864580D01*
X82233333Y-71864580D02*
X82280952Y-71912200D01*
X82280952Y-71912200D02*
X82376190Y-71959819D01*
X82376190Y-71959819D02*
X82471428Y-71959819D01*
X82471428Y-71959819D02*
X82566666Y-71912200D01*
X82566666Y-71912200D02*
X82614285Y-71864580D01*
X82614285Y-71864580D02*
X82661904Y-71769342D01*
X82661904Y-71769342D02*
X82709523Y-71578866D01*
X82709523Y-71578866D02*
X82709523Y-71340771D01*
X82709523Y-71340771D02*
X82661904Y-71150295D01*
X82661904Y-71150295D02*
X82614285Y-71055057D01*
X82614285Y-71055057D02*
X82566666Y-71007438D01*
X82566666Y-71007438D02*
X82471428Y-70959819D01*
X81661904Y-71959819D02*
X81471428Y-71959819D01*
X81471428Y-71959819D02*
X81376190Y-71912200D01*
X81376190Y-71912200D02*
X81328571Y-71864580D01*
X81328571Y-71864580D02*
X81233333Y-71721723D01*
X81233333Y-71721723D02*
X81185714Y-71531247D01*
X81185714Y-71531247D02*
X81185714Y-71150295D01*
X81185714Y-71150295D02*
X81233333Y-71055057D01*
X81233333Y-71055057D02*
X81280952Y-71007438D01*
X81280952Y-71007438D02*
X81376190Y-70959819D01*
X81376190Y-70959819D02*
X81566666Y-70959819D01*
X81566666Y-70959819D02*
X81661904Y-71007438D01*
X81661904Y-71007438D02*
X81709523Y-71055057D01*
X81709523Y-71055057D02*
X81757142Y-71150295D01*
X81757142Y-71150295D02*
X81757142Y-71388390D01*
X81757142Y-71388390D02*
X81709523Y-71483628D01*
X81709523Y-71483628D02*
X81661904Y-71531247D01*
X81661904Y-71531247D02*
X81566666Y-71578866D01*
X81566666Y-71578866D02*
X81376190Y-71578866D01*
X81376190Y-71578866D02*
X81280952Y-71531247D01*
X81280952Y-71531247D02*
X81233333Y-71483628D01*
X81233333Y-71483628D02*
X81185714Y-71388390D01*
X80757142Y-71578866D02*
X79995238Y-71578866D01*
X79566666Y-71055057D02*
X79519047Y-71007438D01*
X79519047Y-71007438D02*
X79423809Y-70959819D01*
X79423809Y-70959819D02*
X79185714Y-70959819D01*
X79185714Y-70959819D02*
X79090476Y-71007438D01*
X79090476Y-71007438D02*
X79042857Y-71055057D01*
X79042857Y-71055057D02*
X78995238Y-71150295D01*
X78995238Y-71150295D02*
X78995238Y-71245533D01*
X78995238Y-71245533D02*
X79042857Y-71388390D01*
X79042857Y-71388390D02*
X79614285Y-71959819D01*
X79614285Y-71959819D02*
X78995238Y-71959819D01*
X78138095Y-70959819D02*
X78328571Y-70959819D01*
X78328571Y-70959819D02*
X78423809Y-71007438D01*
X78423809Y-71007438D02*
X78471428Y-71055057D01*
X78471428Y-71055057D02*
X78566666Y-71197914D01*
X78566666Y-71197914D02*
X78614285Y-71388390D01*
X78614285Y-71388390D02*
X78614285Y-71769342D01*
X78614285Y-71769342D02*
X78566666Y-71864580D01*
X78566666Y-71864580D02*
X78519047Y-71912200D01*
X78519047Y-71912200D02*
X78423809Y-71959819D01*
X78423809Y-71959819D02*
X78233333Y-71959819D01*
X78233333Y-71959819D02*
X78138095Y-71912200D01*
X78138095Y-71912200D02*
X78090476Y-71864580D01*
X78090476Y-71864580D02*
X78042857Y-71769342D01*
X78042857Y-71769342D02*
X78042857Y-71531247D01*
X78042857Y-71531247D02*
X78090476Y-71436009D01*
X78090476Y-71436009D02*
X78138095Y-71388390D01*
X78138095Y-71388390D02*
X78233333Y-71340771D01*
X78233333Y-71340771D02*
X78423809Y-71340771D01*
X78423809Y-71340771D02*
X78519047Y-71388390D01*
X78519047Y-71388390D02*
X78566666Y-71436009D01*
X78566666Y-71436009D02*
X78614285Y-71531247D01*
X86471428Y-73569819D02*
X86471428Y-72569819D01*
X86471428Y-72569819D02*
X86233333Y-72569819D01*
X86233333Y-72569819D02*
X86090476Y-72617438D01*
X86090476Y-72617438D02*
X85995238Y-72712676D01*
X85995238Y-72712676D02*
X85947619Y-72807914D01*
X85947619Y-72807914D02*
X85900000Y-72998390D01*
X85900000Y-72998390D02*
X85900000Y-73141247D01*
X85900000Y-73141247D02*
X85947619Y-73331723D01*
X85947619Y-73331723D02*
X85995238Y-73426961D01*
X85995238Y-73426961D02*
X86090476Y-73522200D01*
X86090476Y-73522200D02*
X86233333Y-73569819D01*
X86233333Y-73569819D02*
X86471428Y-73569819D01*
X85471428Y-73188866D02*
X84709524Y-73188866D01*
X84233333Y-73569819D02*
X84233333Y-72569819D01*
X84233333Y-72569819D02*
X83852381Y-72569819D01*
X83852381Y-72569819D02*
X83757143Y-72617438D01*
X83757143Y-72617438D02*
X83709524Y-72665057D01*
X83709524Y-72665057D02*
X83661905Y-72760295D01*
X83661905Y-72760295D02*
X83661905Y-72903152D01*
X83661905Y-72903152D02*
X83709524Y-72998390D01*
X83709524Y-72998390D02*
X83757143Y-73046009D01*
X83757143Y-73046009D02*
X83852381Y-73093628D01*
X83852381Y-73093628D02*
X84233333Y-73093628D01*
X82804762Y-73569819D02*
X82804762Y-73046009D01*
X82804762Y-73046009D02*
X82852381Y-72950771D01*
X82852381Y-72950771D02*
X82947619Y-72903152D01*
X82947619Y-72903152D02*
X83138095Y-72903152D01*
X83138095Y-72903152D02*
X83233333Y-72950771D01*
X82804762Y-73522200D02*
X82900000Y-73569819D01*
X82900000Y-73569819D02*
X83138095Y-73569819D01*
X83138095Y-73569819D02*
X83233333Y-73522200D01*
X83233333Y-73522200D02*
X83280952Y-73426961D01*
X83280952Y-73426961D02*
X83280952Y-73331723D01*
X83280952Y-73331723D02*
X83233333Y-73236485D01*
X83233333Y-73236485D02*
X83138095Y-73188866D01*
X83138095Y-73188866D02*
X82900000Y-73188866D01*
X82900000Y-73188866D02*
X82804762Y-73141247D01*
X81900000Y-73569819D02*
X81900000Y-72569819D01*
X81900000Y-73522200D02*
X81995238Y-73569819D01*
X81995238Y-73569819D02*
X82185714Y-73569819D01*
X82185714Y-73569819D02*
X82280952Y-73522200D01*
X82280952Y-73522200D02*
X82328571Y-73474580D01*
X82328571Y-73474580D02*
X82376190Y-73379342D01*
X82376190Y-73379342D02*
X82376190Y-73093628D01*
X82376190Y-73093628D02*
X82328571Y-72998390D01*
X82328571Y-72998390D02*
X82280952Y-72950771D01*
X82280952Y-72950771D02*
X82185714Y-72903152D01*
X82185714Y-72903152D02*
X81995238Y-72903152D01*
X81995238Y-72903152D02*
X81900000Y-72950771D01*
X80804761Y-72569819D02*
X80471428Y-73569819D01*
X80471428Y-73569819D02*
X80138095Y-72569819D01*
X79280952Y-73569819D02*
X79852380Y-73569819D01*
X79566666Y-73569819D02*
X79566666Y-72569819D01*
X79566666Y-72569819D02*
X79661904Y-72712676D01*
X79661904Y-72712676D02*
X79757142Y-72807914D01*
X79757142Y-72807914D02*
X79852380Y-72855533D01*
X86022200Y-61989160D02*
X86069819Y-62132017D01*
X86069819Y-62132017D02*
X86069819Y-62370112D01*
X86069819Y-62370112D02*
X86022200Y-62465350D01*
X86022200Y-62465350D02*
X85974580Y-62512969D01*
X85974580Y-62512969D02*
X85879342Y-62560588D01*
X85879342Y-62560588D02*
X85784104Y-62560588D01*
X85784104Y-62560588D02*
X85688866Y-62512969D01*
X85688866Y-62512969D02*
X85641247Y-62465350D01*
X85641247Y-62465350D02*
X85593628Y-62370112D01*
X85593628Y-62370112D02*
X85546009Y-62179636D01*
X85546009Y-62179636D02*
X85498390Y-62084398D01*
X85498390Y-62084398D02*
X85450771Y-62036779D01*
X85450771Y-62036779D02*
X85355533Y-61989160D01*
X85355533Y-61989160D02*
X85260295Y-61989160D01*
X85260295Y-61989160D02*
X85165057Y-62036779D01*
X85165057Y-62036779D02*
X85117438Y-62084398D01*
X85117438Y-62084398D02*
X85069819Y-62179636D01*
X85069819Y-62179636D02*
X85069819Y-62417731D01*
X85069819Y-62417731D02*
X85117438Y-62560588D01*
X85069819Y-62893922D02*
X86069819Y-63132017D01*
X86069819Y-63132017D02*
X85355533Y-63322493D01*
X85355533Y-63322493D02*
X86069819Y-63512969D01*
X86069819Y-63512969D02*
X85069819Y-63751065D01*
X85403152Y-64560588D02*
X86069819Y-64560588D01*
X85022200Y-64322493D02*
X85736485Y-64084398D01*
X85736485Y-64084398D02*
X85736485Y-64703445D01*
X87617438Y-62560588D02*
X87569819Y-62465350D01*
X87569819Y-62465350D02*
X87569819Y-62322493D01*
X87569819Y-62322493D02*
X87617438Y-62179636D01*
X87617438Y-62179636D02*
X87712676Y-62084398D01*
X87712676Y-62084398D02*
X87807914Y-62036779D01*
X87807914Y-62036779D02*
X87998390Y-61989160D01*
X87998390Y-61989160D02*
X88141247Y-61989160D01*
X88141247Y-61989160D02*
X88331723Y-62036779D01*
X88331723Y-62036779D02*
X88426961Y-62084398D01*
X88426961Y-62084398D02*
X88522200Y-62179636D01*
X88522200Y-62179636D02*
X88569819Y-62322493D01*
X88569819Y-62322493D02*
X88569819Y-62417731D01*
X88569819Y-62417731D02*
X88522200Y-62560588D01*
X88522200Y-62560588D02*
X88474580Y-62608207D01*
X88474580Y-62608207D02*
X88141247Y-62608207D01*
X88141247Y-62608207D02*
X88141247Y-62417731D01*
X88569819Y-63036779D02*
X87569819Y-63036779D01*
X87569819Y-63036779D02*
X88569819Y-63608207D01*
X88569819Y-63608207D02*
X87569819Y-63608207D01*
X88569819Y-64084398D02*
X87569819Y-64084398D01*
X87569819Y-64084398D02*
X87569819Y-64322493D01*
X87569819Y-64322493D02*
X87617438Y-64465350D01*
X87617438Y-64465350D02*
X87712676Y-64560588D01*
X87712676Y-64560588D02*
X87807914Y-64608207D01*
X87807914Y-64608207D02*
X87998390Y-64655826D01*
X87998390Y-64655826D02*
X88141247Y-64655826D01*
X88141247Y-64655826D02*
X88331723Y-64608207D01*
X88331723Y-64608207D02*
X88426961Y-64560588D01*
X88426961Y-64560588D02*
X88522200Y-64465350D01*
X88522200Y-64465350D02*
X88569819Y-64322493D01*
X88569819Y-64322493D02*
X88569819Y-64084398D01*
X87777506Y-36769819D02*
X87777506Y-37484104D01*
X87777506Y-37484104D02*
X87825125Y-37626961D01*
X87825125Y-37626961D02*
X87920363Y-37722200D01*
X87920363Y-37722200D02*
X88063220Y-37769819D01*
X88063220Y-37769819D02*
X88158458Y-37769819D01*
X86825125Y-37769819D02*
X87301315Y-37769819D01*
X87301315Y-37769819D02*
X87301315Y-36769819D01*
X85920363Y-37674580D02*
X85967982Y-37722200D01*
X85967982Y-37722200D02*
X86110839Y-37769819D01*
X86110839Y-37769819D02*
X86206077Y-37769819D01*
X86206077Y-37769819D02*
X86348934Y-37722200D01*
X86348934Y-37722200D02*
X86444172Y-37626961D01*
X86444172Y-37626961D02*
X86491791Y-37531723D01*
X86491791Y-37531723D02*
X86539410Y-37341247D01*
X86539410Y-37341247D02*
X86539410Y-37198390D01*
X86539410Y-37198390D02*
X86491791Y-37007914D01*
X86491791Y-37007914D02*
X86444172Y-36912676D01*
X86444172Y-36912676D02*
X86348934Y-36817438D01*
X86348934Y-36817438D02*
X86206077Y-36769819D01*
X86206077Y-36769819D02*
X86110839Y-36769819D01*
X86110839Y-36769819D02*
X85967982Y-36817438D01*
X85967982Y-36817438D02*
X85920363Y-36865057D01*
X85206077Y-36769819D02*
X85206077Y-37484104D01*
X85206077Y-37484104D02*
X85253696Y-37626961D01*
X85253696Y-37626961D02*
X85348934Y-37722200D01*
X85348934Y-37722200D02*
X85491791Y-37769819D01*
X85491791Y-37769819D02*
X85587029Y-37769819D01*
X84253696Y-37769819D02*
X84729886Y-37769819D01*
X84729886Y-37769819D02*
X84729886Y-36769819D01*
X83348934Y-37674580D02*
X83396553Y-37722200D01*
X83396553Y-37722200D02*
X83539410Y-37769819D01*
X83539410Y-37769819D02*
X83634648Y-37769819D01*
X83634648Y-37769819D02*
X83777505Y-37722200D01*
X83777505Y-37722200D02*
X83872743Y-37626961D01*
X83872743Y-37626961D02*
X83920362Y-37531723D01*
X83920362Y-37531723D02*
X83967981Y-37341247D01*
X83967981Y-37341247D02*
X83967981Y-37198390D01*
X83967981Y-37198390D02*
X83920362Y-37007914D01*
X83920362Y-37007914D02*
X83872743Y-36912676D01*
X83872743Y-36912676D02*
X83777505Y-36817438D01*
X83777505Y-36817438D02*
X83634648Y-36769819D01*
X83634648Y-36769819D02*
X83539410Y-36769819D01*
X83539410Y-36769819D02*
X83396553Y-36817438D01*
X83396553Y-36817438D02*
X83348934Y-36865057D01*
X82634648Y-36769819D02*
X82634648Y-37484104D01*
X82634648Y-37484104D02*
X82682267Y-37626961D01*
X82682267Y-37626961D02*
X82777505Y-37722200D01*
X82777505Y-37722200D02*
X82920362Y-37769819D01*
X82920362Y-37769819D02*
X83015600Y-37769819D01*
X81682267Y-37769819D02*
X82158457Y-37769819D01*
X82158457Y-37769819D02*
X82158457Y-36769819D01*
X80777505Y-37674580D02*
X80825124Y-37722200D01*
X80825124Y-37722200D02*
X80967981Y-37769819D01*
X80967981Y-37769819D02*
X81063219Y-37769819D01*
X81063219Y-37769819D02*
X81206076Y-37722200D01*
X81206076Y-37722200D02*
X81301314Y-37626961D01*
X81301314Y-37626961D02*
X81348933Y-37531723D01*
X81348933Y-37531723D02*
X81396552Y-37341247D01*
X81396552Y-37341247D02*
X81396552Y-37198390D01*
X81396552Y-37198390D02*
X81348933Y-37007914D01*
X81348933Y-37007914D02*
X81301314Y-36912676D01*
X81301314Y-36912676D02*
X81206076Y-36817438D01*
X81206076Y-36817438D02*
X81063219Y-36769819D01*
X81063219Y-36769819D02*
X80967981Y-36769819D01*
X80967981Y-36769819D02*
X80825124Y-36817438D01*
X80825124Y-36817438D02*
X80777505Y-36865057D01*
X80063219Y-36769819D02*
X80063219Y-37484104D01*
X80063219Y-37484104D02*
X80110838Y-37626961D01*
X80110838Y-37626961D02*
X80206076Y-37722200D01*
X80206076Y-37722200D02*
X80348933Y-37769819D01*
X80348933Y-37769819D02*
X80444171Y-37769819D01*
X79110838Y-37769819D02*
X79587028Y-37769819D01*
X79587028Y-37769819D02*
X79587028Y-36769819D01*
X78206076Y-37674580D02*
X78253695Y-37722200D01*
X78253695Y-37722200D02*
X78396552Y-37769819D01*
X78396552Y-37769819D02*
X78491790Y-37769819D01*
X78491790Y-37769819D02*
X78634647Y-37722200D01*
X78634647Y-37722200D02*
X78729885Y-37626961D01*
X78729885Y-37626961D02*
X78777504Y-37531723D01*
X78777504Y-37531723D02*
X78825123Y-37341247D01*
X78825123Y-37341247D02*
X78825123Y-37198390D01*
X78825123Y-37198390D02*
X78777504Y-37007914D01*
X78777504Y-37007914D02*
X78729885Y-36912676D01*
X78729885Y-36912676D02*
X78634647Y-36817438D01*
X78634647Y-36817438D02*
X78491790Y-36769819D01*
X78491790Y-36769819D02*
X78396552Y-36769819D01*
X78396552Y-36769819D02*
X78253695Y-36817438D01*
X78253695Y-36817438D02*
X78206076Y-36865057D01*
X97269819Y-46536779D02*
X96269819Y-46536779D01*
X97269819Y-46965350D02*
X96746009Y-46965350D01*
X96746009Y-46965350D02*
X96650771Y-46917731D01*
X96650771Y-46917731D02*
X96603152Y-46822493D01*
X96603152Y-46822493D02*
X96603152Y-46679636D01*
X96603152Y-46679636D02*
X96650771Y-46584398D01*
X96650771Y-46584398D02*
X96698390Y-46536779D01*
X96603152Y-47298684D02*
X96603152Y-47679636D01*
X96269819Y-47441541D02*
X97126961Y-47441541D01*
X97126961Y-47441541D02*
X97222200Y-47489160D01*
X97222200Y-47489160D02*
X97269819Y-47584398D01*
X97269819Y-47584398D02*
X97269819Y-47679636D01*
X96603152Y-47870113D02*
X96603152Y-48251065D01*
X96269819Y-48012970D02*
X97126961Y-48012970D01*
X97126961Y-48012970D02*
X97222200Y-48060589D01*
X97222200Y-48060589D02*
X97269819Y-48155827D01*
X97269819Y-48155827D02*
X97269819Y-48251065D01*
X96603152Y-48584399D02*
X97603152Y-48584399D01*
X96650771Y-48584399D02*
X96603152Y-48679637D01*
X96603152Y-48679637D02*
X96603152Y-48870113D01*
X96603152Y-48870113D02*
X96650771Y-48965351D01*
X96650771Y-48965351D02*
X96698390Y-49012970D01*
X96698390Y-49012970D02*
X96793628Y-49060589D01*
X96793628Y-49060589D02*
X97079342Y-49060589D01*
X97079342Y-49060589D02*
X97174580Y-49012970D01*
X97174580Y-49012970D02*
X97222200Y-48965351D01*
X97222200Y-48965351D02*
X97269819Y-48870113D01*
X97269819Y-48870113D02*
X97269819Y-48679637D01*
X97269819Y-48679637D02*
X97222200Y-48584399D01*
X97222200Y-49441542D02*
X97269819Y-49536780D01*
X97269819Y-49536780D02*
X97269819Y-49727256D01*
X97269819Y-49727256D02*
X97222200Y-49822494D01*
X97222200Y-49822494D02*
X97126961Y-49870113D01*
X97126961Y-49870113D02*
X97079342Y-49870113D01*
X97079342Y-49870113D02*
X96984104Y-49822494D01*
X96984104Y-49822494D02*
X96936485Y-49727256D01*
X96936485Y-49727256D02*
X96936485Y-49584399D01*
X96936485Y-49584399D02*
X96888866Y-49489161D01*
X96888866Y-49489161D02*
X96793628Y-49441542D01*
X96793628Y-49441542D02*
X96746009Y-49441542D01*
X96746009Y-49441542D02*
X96650771Y-49489161D01*
X96650771Y-49489161D02*
X96603152Y-49584399D01*
X96603152Y-49584399D02*
X96603152Y-49727256D01*
X96603152Y-49727256D02*
X96650771Y-49822494D01*
X97174580Y-50298685D02*
X97222200Y-50346304D01*
X97222200Y-50346304D02*
X97269819Y-50298685D01*
X97269819Y-50298685D02*
X97222200Y-50251066D01*
X97222200Y-50251066D02*
X97174580Y-50298685D01*
X97174580Y-50298685D02*
X97269819Y-50298685D01*
X96650771Y-50298685D02*
X96698390Y-50346304D01*
X96698390Y-50346304D02*
X96746009Y-50298685D01*
X96746009Y-50298685D02*
X96698390Y-50251066D01*
X96698390Y-50251066D02*
X96650771Y-50298685D01*
X96650771Y-50298685D02*
X96746009Y-50298685D01*
X96222200Y-51489160D02*
X97507914Y-50632018D01*
X96222200Y-52536779D02*
X97507914Y-51679637D01*
X96603152Y-52774875D02*
X97269819Y-52965351D01*
X97269819Y-52965351D02*
X96793628Y-53155827D01*
X96793628Y-53155827D02*
X97269819Y-53346303D01*
X97269819Y-53346303D02*
X96603152Y-53536779D01*
X96603152Y-53822494D02*
X97269819Y-54012970D01*
X97269819Y-54012970D02*
X96793628Y-54203446D01*
X96793628Y-54203446D02*
X97269819Y-54393922D01*
X97269819Y-54393922D02*
X96603152Y-54584398D01*
X96603152Y-54870113D02*
X97269819Y-55060589D01*
X97269819Y-55060589D02*
X96793628Y-55251065D01*
X96793628Y-55251065D02*
X97269819Y-55441541D01*
X97269819Y-55441541D02*
X96603152Y-55632017D01*
X97174580Y-56012970D02*
X97222200Y-56060589D01*
X97222200Y-56060589D02*
X97269819Y-56012970D01*
X97269819Y-56012970D02*
X97222200Y-55965351D01*
X97222200Y-55965351D02*
X97174580Y-56012970D01*
X97174580Y-56012970D02*
X97269819Y-56012970D01*
X96603152Y-56917731D02*
X97412676Y-56917731D01*
X97412676Y-56917731D02*
X97507914Y-56870112D01*
X97507914Y-56870112D02*
X97555533Y-56822493D01*
X97555533Y-56822493D02*
X97603152Y-56727255D01*
X97603152Y-56727255D02*
X97603152Y-56584398D01*
X97603152Y-56584398D02*
X97555533Y-56489160D01*
X97222200Y-56917731D02*
X97269819Y-56822493D01*
X97269819Y-56822493D02*
X97269819Y-56632017D01*
X97269819Y-56632017D02*
X97222200Y-56536779D01*
X97222200Y-56536779D02*
X97174580Y-56489160D01*
X97174580Y-56489160D02*
X97079342Y-56441541D01*
X97079342Y-56441541D02*
X96793628Y-56441541D01*
X96793628Y-56441541D02*
X96698390Y-56489160D01*
X96698390Y-56489160D02*
X96650771Y-56536779D01*
X96650771Y-56536779D02*
X96603152Y-56632017D01*
X96603152Y-56632017D02*
X96603152Y-56822493D01*
X96603152Y-56822493D02*
X96650771Y-56917731D01*
X97269819Y-57822493D02*
X96746009Y-57822493D01*
X96746009Y-57822493D02*
X96650771Y-57774874D01*
X96650771Y-57774874D02*
X96603152Y-57679636D01*
X96603152Y-57679636D02*
X96603152Y-57489160D01*
X96603152Y-57489160D02*
X96650771Y-57393922D01*
X97222200Y-57822493D02*
X97269819Y-57727255D01*
X97269819Y-57727255D02*
X97269819Y-57489160D01*
X97269819Y-57489160D02*
X97222200Y-57393922D01*
X97222200Y-57393922D02*
X97126961Y-57346303D01*
X97126961Y-57346303D02*
X97031723Y-57346303D01*
X97031723Y-57346303D02*
X96936485Y-57393922D01*
X96936485Y-57393922D02*
X96888866Y-57489160D01*
X96888866Y-57489160D02*
X96888866Y-57727255D01*
X96888866Y-57727255D02*
X96841247Y-57822493D01*
X97269819Y-58298684D02*
X96603152Y-58298684D01*
X96698390Y-58298684D02*
X96650771Y-58346303D01*
X96650771Y-58346303D02*
X96603152Y-58441541D01*
X96603152Y-58441541D02*
X96603152Y-58584398D01*
X96603152Y-58584398D02*
X96650771Y-58679636D01*
X96650771Y-58679636D02*
X96746009Y-58727255D01*
X96746009Y-58727255D02*
X97269819Y-58727255D01*
X96746009Y-58727255D02*
X96650771Y-58774874D01*
X96650771Y-58774874D02*
X96603152Y-58870112D01*
X96603152Y-58870112D02*
X96603152Y-59012969D01*
X96603152Y-59012969D02*
X96650771Y-59108208D01*
X96650771Y-59108208D02*
X96746009Y-59155827D01*
X96746009Y-59155827D02*
X97269819Y-59155827D01*
X97222200Y-60012969D02*
X97269819Y-59917731D01*
X97269819Y-59917731D02*
X97269819Y-59727255D01*
X97269819Y-59727255D02*
X97222200Y-59632017D01*
X97222200Y-59632017D02*
X97126961Y-59584398D01*
X97126961Y-59584398D02*
X96746009Y-59584398D01*
X96746009Y-59584398D02*
X96650771Y-59632017D01*
X96650771Y-59632017D02*
X96603152Y-59727255D01*
X96603152Y-59727255D02*
X96603152Y-59917731D01*
X96603152Y-59917731D02*
X96650771Y-60012969D01*
X96650771Y-60012969D02*
X96746009Y-60060588D01*
X96746009Y-60060588D02*
X96841247Y-60060588D01*
X96841247Y-60060588D02*
X96936485Y-59584398D01*
X97222200Y-60917731D02*
X97269819Y-60822493D01*
X97269819Y-60822493D02*
X97269819Y-60632017D01*
X97269819Y-60632017D02*
X97222200Y-60536779D01*
X97222200Y-60536779D02*
X97174580Y-60489160D01*
X97174580Y-60489160D02*
X97079342Y-60441541D01*
X97079342Y-60441541D02*
X96793628Y-60441541D01*
X96793628Y-60441541D02*
X96698390Y-60489160D01*
X96698390Y-60489160D02*
X96650771Y-60536779D01*
X96650771Y-60536779D02*
X96603152Y-60632017D01*
X96603152Y-60632017D02*
X96603152Y-60822493D01*
X96603152Y-60822493D02*
X96650771Y-60917731D01*
X97269819Y-61346303D02*
X96603152Y-61346303D01*
X96793628Y-61346303D02*
X96698390Y-61393922D01*
X96698390Y-61393922D02*
X96650771Y-61441541D01*
X96650771Y-61441541D02*
X96603152Y-61536779D01*
X96603152Y-61536779D02*
X96603152Y-61632017D01*
X97269819Y-62393922D02*
X96746009Y-62393922D01*
X96746009Y-62393922D02*
X96650771Y-62346303D01*
X96650771Y-62346303D02*
X96603152Y-62251065D01*
X96603152Y-62251065D02*
X96603152Y-62060589D01*
X96603152Y-62060589D02*
X96650771Y-61965351D01*
X97222200Y-62393922D02*
X97269819Y-62298684D01*
X97269819Y-62298684D02*
X97269819Y-62060589D01*
X97269819Y-62060589D02*
X97222200Y-61965351D01*
X97222200Y-61965351D02*
X97126961Y-61917732D01*
X97126961Y-61917732D02*
X97031723Y-61917732D01*
X97031723Y-61917732D02*
X96936485Y-61965351D01*
X96936485Y-61965351D02*
X96888866Y-62060589D01*
X96888866Y-62060589D02*
X96888866Y-62298684D01*
X96888866Y-62298684D02*
X96841247Y-62393922D01*
X96603152Y-62727256D02*
X96603152Y-63108208D01*
X97269819Y-62870113D02*
X96412676Y-62870113D01*
X96412676Y-62870113D02*
X96317438Y-62917732D01*
X96317438Y-62917732D02*
X96269819Y-63012970D01*
X96269819Y-63012970D02*
X96269819Y-63108208D01*
X96603152Y-63298685D02*
X96603152Y-63679637D01*
X96269819Y-63441542D02*
X97126961Y-63441542D01*
X97126961Y-63441542D02*
X97222200Y-63489161D01*
X97222200Y-63489161D02*
X97269819Y-63584399D01*
X97269819Y-63584399D02*
X97269819Y-63679637D01*
X97174580Y-64012971D02*
X97222200Y-64060590D01*
X97222200Y-64060590D02*
X97269819Y-64012971D01*
X97269819Y-64012971D02*
X97222200Y-63965352D01*
X97222200Y-63965352D02*
X97174580Y-64012971D01*
X97174580Y-64012971D02*
X97269819Y-64012971D01*
X97269819Y-64489161D02*
X96603152Y-64489161D01*
X96269819Y-64489161D02*
X96317438Y-64441542D01*
X96317438Y-64441542D02*
X96365057Y-64489161D01*
X96365057Y-64489161D02*
X96317438Y-64536780D01*
X96317438Y-64536780D02*
X96269819Y-64489161D01*
X96269819Y-64489161D02*
X96365057Y-64489161D01*
X96603152Y-64822494D02*
X96603152Y-65203446D01*
X96269819Y-64965351D02*
X97126961Y-64965351D01*
X97126961Y-64965351D02*
X97222200Y-65012970D01*
X97222200Y-65012970D02*
X97269819Y-65108208D01*
X97269819Y-65108208D02*
X97269819Y-65203446D01*
X96222200Y-66251065D02*
X97507914Y-65393923D01*
X83522200Y-61989160D02*
X83569819Y-62132017D01*
X83569819Y-62132017D02*
X83569819Y-62370112D01*
X83569819Y-62370112D02*
X83522200Y-62465350D01*
X83522200Y-62465350D02*
X83474580Y-62512969D01*
X83474580Y-62512969D02*
X83379342Y-62560588D01*
X83379342Y-62560588D02*
X83284104Y-62560588D01*
X83284104Y-62560588D02*
X83188866Y-62512969D01*
X83188866Y-62512969D02*
X83141247Y-62465350D01*
X83141247Y-62465350D02*
X83093628Y-62370112D01*
X83093628Y-62370112D02*
X83046009Y-62179636D01*
X83046009Y-62179636D02*
X82998390Y-62084398D01*
X82998390Y-62084398D02*
X82950771Y-62036779D01*
X82950771Y-62036779D02*
X82855533Y-61989160D01*
X82855533Y-61989160D02*
X82760295Y-61989160D01*
X82760295Y-61989160D02*
X82665057Y-62036779D01*
X82665057Y-62036779D02*
X82617438Y-62084398D01*
X82617438Y-62084398D02*
X82569819Y-62179636D01*
X82569819Y-62179636D02*
X82569819Y-62417731D01*
X82569819Y-62417731D02*
X82617438Y-62560588D01*
X82569819Y-62893922D02*
X83569819Y-63132017D01*
X83569819Y-63132017D02*
X82855533Y-63322493D01*
X82855533Y-63322493D02*
X83569819Y-63512969D01*
X83569819Y-63512969D02*
X82569819Y-63751065D01*
X82569819Y-64036779D02*
X82569819Y-64655826D01*
X82569819Y-64655826D02*
X82950771Y-64322493D01*
X82950771Y-64322493D02*
X82950771Y-64465350D01*
X82950771Y-64465350D02*
X82998390Y-64560588D01*
X82998390Y-64560588D02*
X83046009Y-64608207D01*
X83046009Y-64608207D02*
X83141247Y-64655826D01*
X83141247Y-64655826D02*
X83379342Y-64655826D01*
X83379342Y-64655826D02*
X83474580Y-64608207D01*
X83474580Y-64608207D02*
X83522200Y-64560588D01*
X83522200Y-64560588D02*
X83569819Y-64465350D01*
X83569819Y-64465350D02*
X83569819Y-64179636D01*
X83569819Y-64179636D02*
X83522200Y-64084398D01*
X83522200Y-64084398D02*
X83474580Y-64036779D01*
X75098819Y-66202666D02*
X75813104Y-66202666D01*
X75813104Y-66202666D02*
X75955961Y-66155047D01*
X75955961Y-66155047D02*
X76051200Y-66059809D01*
X76051200Y-66059809D02*
X76098819Y-65916952D01*
X76098819Y-65916952D02*
X76098819Y-65821714D01*
X76098819Y-67202666D02*
X76098819Y-66631238D01*
X76098819Y-66916952D02*
X75098819Y-66916952D01*
X75098819Y-66916952D02*
X75241676Y-66821714D01*
X75241676Y-66821714D02*
X75336914Y-66726476D01*
X75336914Y-66726476D02*
X75384533Y-66631238D01*
D11*
%TO.C,J1*%
X89464000Y-65206000D02*
X89464000Y-67866000D01*
X79244000Y-65206000D02*
X89464000Y-65206000D01*
X79244000Y-65206000D02*
X79244000Y-67866000D01*
X77974000Y-65206000D02*
X76644000Y-65206000D01*
X76644000Y-65206000D02*
X76644000Y-66536000D01*
X79244000Y-67866000D02*
X89464000Y-67866000D01*
%TD*%
M02*
